<svg data-name="Layer 1" xmlns="http://www.w3.org/2000/svg" xmlns:xlink="http://www.w3.org/1999/xlink" viewBox="0 0 1440 1053"><defs><linearGradient id="a" x1="38.13" y1="908.93" x2="36.93" y2="910.37" gradientTransform="matrix(-3005.49 1214.3 144.55 357.77 -17973.85 -370435.88)" gradientUnits="userSpaceOnUse"><stop offset="0" stop-color="#4264fb"/><stop offset="1" stop-color="#ee4e8b"/></linearGradient><linearGradient id="c" x1="38.64" y1="904.74" x2="36.01" y2="907.87" gradientTransform="matrix(-2126.32 859.09 23.15 57.29 59480.44 -83660.01)" xlink:href="#a"/><linearGradient id="d" x1="38.57" y1="905.18" x2="36.1" y2="908.12" gradientTransform="matrix(-2143.71 866.11 25.4 62.86 58087.19 -88989.37)" xlink:href="#a"/><linearGradient id="e" x1="38.5" y1="905.57" x2="36.17" y2="908.34" gradientTransform="matrix(-2161.34 873.24 27.7 68.57 56650.67 -94451.9)" xlink:href="#a"/><linearGradient id="f" x1="38.45" y1="905.9" x2="36.24" y2="908.53" gradientTransform="matrix(-2179.21 880.46 29.96 74.14 55270.82 -99799.98)" xlink:href="#a"/><linearGradient id="g" x1="38.4" y1="906.18" x2="36.29" y2="908.69" gradientTransform="matrix(-2197.32 887.77 32.26 79.84 53856.31 -105262.52)" xlink:href="#a"/><linearGradient id="h" x1="38.36" y1="906.42" x2="36.34" y2="908.82" gradientTransform="matrix(-2215.66 895.18 34.51 85.42 52493.38 -110618.49)" xlink:href="#a"/><linearGradient id="i" x1="38.33" y1="906.64" x2="36.39" y2="908.95" gradientTransform="matrix(-2234.23 902.69 36.74 90.95 51161.26 -115927.2)" xlink:href="#a"/><linearGradient id="j" x1="38.29" y1="906.82" x2="36.42" y2="909.05" gradientTransform="matrix(-2253.04 910.29 38.93 96.36 49876.79 -121143.13)" xlink:href="#a"/><linearGradient id="k" x1="38.26" y1="907" x2="36.46" y2="909.14" gradientTransform="matrix(-2272.05 917.97 41.22 102.03 48507.23 -126590.9)" xlink:href="#a"/><linearGradient id="l" x1="38.23" y1="907.15" x2="36.49" y2="909.22" gradientTransform="matrix(-2290.42 925.39 43.48 107.63 47140.93 -131957.93)" xlink:href="#a"/><linearGradient id="m" x1="38.22" y1="907.27" x2="36.52" y2="909.29" gradientTransform="matrix(-2308.76 932.8 45.62 112.92 45884.6 -137055.09)" xlink:href="#a"/><linearGradient id="n" x1="38.22" y1="907.37" x2="36.55" y2="909.36" gradientTransform="matrix(-2327.08 940.2 47.87 118.47 44531.18 -142385.04)" xlink:href="#a"/><linearGradient id="o" x1="38.16" y1="907.52" x2="36.57" y2="909.41" gradientTransform="matrix(-2345.35 947.58 49.99 123.74 43282.87 -147454.09)" xlink:href="#a"/><linearGradient id="p" x1="38.2" y1="907.56" x2="36.6" y2="909.47" gradientTransform="matrix(-2363.57 954.94 52.22 129.25 41939.52 -152748.34)" xlink:href="#a"/><linearGradient id="q" x1="38.14" y1="907.69" x2="36.62" y2="909.51" gradientTransform="matrix(-2381.72 962.28 54.33 134.48 40700.39 -157781.84)" xlink:href="#a"/><linearGradient id="r" x1="38.14" y1="907.77" x2="36.64" y2="909.55" gradientTransform="matrix(-2399.8 969.58 56.46 139.74 39447.78 -162841.09)" xlink:href="#a"/><linearGradient id="s" x1="38.13" y1="907.83" x2="36.66" y2="909.59" gradientTransform="matrix(-2417.8 976.85 58.6 145.05 38173.36 -167941.96)" xlink:href="#a"/><linearGradient id="t" x1="38.12" y1="907.9" x2="36.68" y2="909.62" gradientTransform="matrix(-2435.72 984.1 60.67 150.16 36968.61 -172866.1)" xlink:href="#a"/><linearGradient id="u" x1="38.12" y1="907.97" x2="36.7" y2="909.66" gradientTransform="matrix(-2453.56 991.3 62.78 155.39 35715.74 -177896.52)" xlink:href="#a"/><linearGradient id="v" x1="38.18" y1="907.96" x2="36.73" y2="909.69" gradientTransform="matrix(-2471.33 998.48 64.98 160.84 34379.53 -183129.12)" xlink:href="#a"/><linearGradient id="w" x1="38.12" y1="908.1" x2="36.75" y2="909.72" gradientTransform="matrix(-2489.02 1005.63 67.2 166.32 33028.93 -188385.1)" xlink:href="#a"/><linearGradient id="x" x1="38.11" y1="908.17" x2="36.78" y2="909.75" gradientTransform="matrix(-2506.63 1012.74 69.52 172.07 31579.93 -193880.99)" xlink:href="#a"/><linearGradient id="y" x1="38.1" y1="908.23" x2="36.8" y2="909.77" gradientTransform="matrix(-2524.18 1019.84 71.73 177.54 30228.08 -199125.72)" xlink:href="#a"/><linearGradient id="z" x1="38.09" y1="908.29" x2="36.82" y2="909.8" gradientTransform="matrix(-2541.68 1026.91 73.94 183.02 28873.35 -204375.77)" xlink:href="#a"/><linearGradient id="A" x1="38.08" y1="908.35" x2="36.85" y2="909.82" gradientTransform="matrix(-2559.14 1033.96 76.24 188.71 27437.29 -209818.56)" xlink:href="#a"/><linearGradient id="B" x1="38.07" y1="908.4" x2="36.87" y2="909.83" gradientTransform="matrix(-2576.56 1041 78.39 194.03 26137.42 -214925.17)" xlink:href="#a"/><linearGradient id="C" x1="38.07" y1="908.44" x2="36.89" y2="909.84" gradientTransform="matrix(-2593.98 1048.03 80.64 199.59 24747.1 -220250.02)" xlink:href="#a"/><linearGradient id="D" x1="38.1" y1="908.45" x2="36.92" y2="909.86" gradientTransform="matrix(-2611.39 1055.07 82.86 205.08 23383 -225510.31)" xlink:href="#a"/><linearGradient id="E" x1="38.04" y1="908.56" x2="36.94" y2="909.87" gradientTransform="matrix(-2628.83 1062.11 85.06 210.54 22031.7 -230741.18)" xlink:href="#a"/><linearGradient id="F" x1="38.13" y1="908.48" x2="36.94" y2="909.9" gradientTransform="matrix(-2646.31 1069.18 87.24 215.92 20713.86 -235898.07)" xlink:href="#a"/><linearGradient id="G" x1="38.04" y1="908.63" x2="36.94" y2="909.94" gradientTransform="matrix(-2663.85 1076.27 90.05 222.89 18808.07 -242513.09)" xlink:href="#a"/><linearGradient id="H" x1="38.18" y1="908.49" x2="36.94" y2="909.96" gradientTransform="matrix(-2681.49 1083.39 91.69 226.95 17980.99 -246467.97)" xlink:href="#a"/><linearGradient id="I" x1="38.05" y1="908.67" x2="36.94" y2="910" gradientTransform="matrix(-2699.25 1090.57 93.89 232.38 16647.13 -251685.89)" xlink:href="#a"/><linearGradient id="J" x1="38.06" y1="908.69" x2="36.93" y2="910.03" gradientTransform="matrix(-2717.15 1097.8 96.02 237.65 15385.24 -256745.54)" xlink:href="#a"/><linearGradient id="K" x1="38.19" y1="908.56" x2="36.93" y2="910.06" gradientTransform="matrix(-2735.24 1105.11 98.17 242.97 14108.07 -261862.33)" xlink:href="#a"/><linearGradient id="L" x1="38.18" y1="908.59" x2="36.92" y2="910.09" gradientTransform="matrix(-2754.66 1112.96 100.39 248.48 12811.18 -267169.78)" xlink:href="#a"/><linearGradient id="M" x1="38.18" y1="908.61" x2="36.91" y2="910.12" gradientTransform="matrix(-2774.82 1121.1 102.47 253.63 11672.57 -272159.88)" xlink:href="#a"/><linearGradient id="N" x1="38.18" y1="908.64" x2="36.9" y2="910.15" gradientTransform="matrix(-2794.44 1129.03 104.69 259.11 10395.49 -277439.96)" xlink:href="#a"/><linearGradient id="O" x1="38.17" y1="908.66" x2="36.9" y2="910.17" gradientTransform="matrix(-2813.53 1136.74 106.75 264.21 9236.03 -282367.67)" xlink:href="#a"/><linearGradient id="P" x1="38.17" y1="908.68" x2="36.89" y2="910.2" gradientTransform="matrix(-2832.08 1144.23 108.95 269.67 7923.25 -287617.82)" xlink:href="#a"/><linearGradient id="Q" x1="38.16" y1="908.7" x2="36.89" y2="910.22" gradientTransform="matrix(-2850.1 1151.51 111 274.74 6735.12 -292502.84)" xlink:href="#a"/><linearGradient id="R" x1="38.16" y1="908.72" x2="36.89" y2="910.23" gradientTransform="matrix(-2867.6 1158.58 113.04 279.79 5532.53 -297368.19)" xlink:href="#a"/><linearGradient id="S" x1="38.16" y1="908.74" x2="36.89" y2="910.24" gradientTransform="matrix(-2884.59 1165.45 115.16 285.03 4246.36 -302386.59)" xlink:href="#a"/><linearGradient id="T" x1="38.15" y1="908.76" x2="36.89" y2="910.25" gradientTransform="matrix(-2901.09 1172.12 117.23 290.16 2978.07 -307308.81)" xlink:href="#a"/><linearGradient id="U" x1="38.15" y1="908.77" x2="36.9" y2="910.26" gradientTransform="matrix(-2917.14 1178.6 119.34 295.37 1666.55 -312288.58)" xlink:href="#a"/><linearGradient id="V" x1="38.14" y1="908.79" x2="36.91" y2="910.26" gradientTransform="matrix(-2932.74 1184.9 121.39 300.44 386.4 -317139.92)" xlink:href="#a"/><linearGradient id="W" x1="38.14" y1="908.81" x2="36.91" y2="910.27" gradientTransform="matrix(-2947.94 1191.05 123.48 305.61 -943.21 -322074.86)" xlink:href="#a"/><linearGradient id="X" x1="38.14" y1="908.82" x2="36.92" y2="910.27" gradientTransform="matrix(-2962.77 1197.04 125.48 310.58 -2214.14 -326821.08)" xlink:href="#a"/><linearGradient id="Y" x1="38.15" y1="908.82" x2="36.93" y2="910.27" gradientTransform="matrix(-2977.28 1202.9 127.52 315.62 -3522.12 -331624.22)" xlink:href="#a"/><linearGradient id="Z" x1="38.15" y1="908.83" x2="36.93" y2="910.27" gradientTransform="matrix(-2991.5 1208.64 129.59 320.76 -4876.39 -336511.85)" xlink:href="#a"/><linearGradient id="aa" x1="37.4" y1="904.5" x2="36.59" y2="905.47" gradientTransform="matrix(-155.71 62.91 23.07 57.09 -14910.92 -53344.71)" xlink:href="#a"/><linearGradient id="ab" x1="37.37" y1="905.62" x2="36.58" y2="906.56" gradientTransform="matrix(-150.76 60.91 28.73 71.1 -20222.21 -66020.75)" xlink:href="#a"/><linearGradient id="ac" x1="37.35" y1="906.44" x2="36.57" y2="907.37" gradientTransform="matrix(-146.63 59.24 35.22 87.18 -26265.54 -80596.38)" xlink:href="#a"/><linearGradient id="ad" x1="37.32" y1="907.1" x2="36.56" y2="908.01" gradientTransform="matrix(-143.16 57.84 43.02 106.47 -33468.05 -98111.66)" xlink:href="#a"/><linearGradient id="ae" x1="37.32" y1="907.54" x2="36.53" y2="908.47" gradientTransform="matrix(-140.2 56.64 51.11 126.5 -40918.57 -116294.16)" xlink:href="#a"/><linearGradient id="af" x1="37.31" y1="907.86" x2="36.5" y2="908.81" gradientTransform="matrix(-137.58 55.59 59.74 147.85 -48845.45 -135692.49)" xlink:href="#a"/><linearGradient id="ag" x1="37.29" y1="908.11" x2="36.48" y2="909.07" gradientTransform="matrix(-135.15 54.6 68.44 169.4 -56836.49 -155269.6)" xlink:href="#a"/><linearGradient id="ah" x1="37.26" y1="908.31" x2="36.45" y2="909.27" gradientTransform="matrix(-132.75 53.63 77.06 190.74 -64751.09 -174665.47)" xlink:href="#a"/><linearGradient id="ai" x1="37.25" y1="908.45" x2="36.43" y2="909.43" gradientTransform="matrix(-130.24 52.62 85.45 211.49 -72453.43 -193519.48)" xlink:href="#a"/><linearGradient id="aj" x1="37.23" y1="908.56" x2="36.4" y2="909.55" gradientTransform="matrix(-127.46 51.5 93.44 231.27 -79809.01 -211487.44)" xlink:href="#a"/><linearGradient id="ak" x1="37.21" y1="908.65" x2="36.37" y2="909.64" gradientTransform="matrix(-124.29 50.22 100.89 249.72 -86688.77 -228234.99)" xlink:href="#a"/><linearGradient id="al" x1="37.18" y1="908.71" x2="36.34" y2="909.72" gradientTransform="matrix(-120.57 48.71 107.66 266.48 -92967.79 -243437.95)" xlink:href="#a"/><linearGradient id="am" x1="37.15" y1="908.77" x2="36.3" y2="909.78" gradientTransform="matrix(-116.19 46.94 113.62 281.21 -98525.64 -256789.12)" xlink:href="#a"/><linearGradient id="an" x1="37.11" y1="908.81" x2="36.25" y2="909.83" gradientTransform="matrix(-111.07 44.88 118.62 293.59 -103248.47 -267991.58)" xlink:href="#a"/><linearGradient id="ao" x1="37.06" y1="908.84" x2="36.19" y2="909.86" gradientTransform="matrix(-104.96 42.41 122.55 303.31 -107026.53 -276753.26)" xlink:href="#a"/><linearGradient id="ap" x1="36.97" y1="908.87" x2="36.12" y2="909.88" gradientTransform="matrix(-97.59 39.43 125.27 310.05 -109756.94 -282783.91)" xlink:href="#a"/><linearGradient id="aq" x1="36.86" y1="908.89" x2="36.03" y2="909.89" gradientTransform="matrix(-88.89 35.91 126.66 313.5 -111328.94 -285805.19)" xlink:href="#a"/><linearGradient id="ar" x1="36.73" y1="908.92" x2="35.9" y2="909.9" gradientTransform="matrix(-78.77 31.82 126.62 313.39 -111642.81 -285561.95)" xlink:href="#a"/><linearGradient id="as" x1="36.53" y1="908.93" x2="35.72" y2="909.9" gradientTransform="matrix(-66.9 27.03 125.04 309.5 -110632.09 -281853.47)" xlink:href="#a"/><linearGradient id="at" x1="36.32" y1="908.92" x2="35.51" y2="909.89" gradientTransform="matrix(-56.81 22.95 122.05 302.09 -108262.72 -274972.63)" xlink:href="#a"/><linearGradient id="au" x1="36.21" y1="908.78" x2="35.28" y2="909.89" gradientTransform="matrix(-48.8 19.72 117.83 291.64 -104696.61 -265354.08)" xlink:href="#a"/><linearGradient id="av" x1="36.1" y1="908.65" x2="35.07" y2="909.87" gradientTransform="matrix(-42.6 17.21 112.56 278.61 -100115.93 -253413.98)" xlink:href="#a"/><linearGradient id="aw" x1="36" y1="908.51" x2="34.88" y2="909.84" gradientTransform="matrix(-37.83 15.28 106.44 263.44 -94695.07 -239550.25)" xlink:href="#a"/><linearGradient id="ax" x1="35.91" y1="908.38" x2="34.72" y2="909.8" gradientTransform="matrix(-34.14 13.79 99.62 246.56 -88605.74 -224148.02)" xlink:href="#a"/><linearGradient id="ay" x1="35.86" y1="908.25" x2="34.61" y2="909.73" gradientTransform="matrix(-31.55 12.75 92.28 228.39 -82000.06 -207588.77)" xlink:href="#a"/><linearGradient id="az" x1="35.71" y1="908.22" x2="34.51" y2="909.65" gradientTransform="matrix(-29.15 11.78 84.57 209.33 -75059.05 -190214.5)" xlink:href="#a"/><linearGradient id="aA" x1="35.57" y1="908.16" x2="34.41" y2="909.55" gradientTransform="matrix(-27.06 10.93 76.66 189.75 -67917.45 -172378.58)" xlink:href="#a"/><linearGradient id="aB" x1="35.44" y1="908.07" x2="34.31" y2="909.42" gradientTransform="matrix(-25.09 10.14 68.69 170.02 -60714.19 -154405.31)" xlink:href="#a"/><linearGradient id="aC" x1="35.26" y1="907.94" x2="34.15" y2="909.27" gradientTransform="matrix(-22.7 9.17 60.8 150.48 -53599.09 -136602.76)" xlink:href="#a"/><linearGradient id="aD" x1="34.91" y1="907.76" x2="33.8" y2="909.08" gradientTransform="matrix(-19.49 7.87 53.12 131.47 -46705.86 -119260.61)" xlink:href="#a"/><linearGradient id="aE" x1="34.81" y1="907.59" x2="33.73" y2="908.87" gradientTransform="matrix(-18.02 7.28 45.77 113.29 -40052 -102705.54)" xlink:href="#a"/><linearGradient id="aF" x1="35.17" y1="907.28" x2="34.12" y2="908.54" gradientTransform="matrix(-19.83 8.01 38.88 96.24 -33693.6 -87227.06)" xlink:href="#a"/><linearGradient id="aG" x1="35.62" y1="906.89" x2="34.6" y2="908.1" gradientTransform="matrix(-23.12 9.34 32.56 80.59 -27796.72 -73047.63)" xlink:href="#a"/><linearGradient id="aH" x1="36.03" y1="906.38" x2="35.05" y2="907.55" gradientTransform="matrix(-27.31 11.03 26.91 66.61 -22476.9 -60401.07)" xlink:href="#a"/><linearGradient id="aI" x1="36.36" y1="905.72" x2="35.4" y2="906.87" gradientTransform="matrix(-32.16 12.99 22.04 54.54 -17836.28 -49502.09)" xlink:href="#a"/><linearGradient id="aJ" x1="36.74" y1="904.93" x2="35.78" y2="906.07" gradientTransform="matrix(-40.76 16.47 18.03 44.62 -13839.81 -40613.52)" xlink:href="#a"/><linearGradient id="aK" x1="36.97" y1="904.05" x2="36.01" y2="905.19" gradientTransform="matrix(-48.78 19.71 14.97 37.06 -10736.27 -33868.45)" xlink:href="#a"/><linearGradient id="aL" x1="37.18" y1="903.28" x2="36.22" y2="904.42" gradientTransform="matrix(-60.07 24.27 12.96 32.08 -8453.08 -29515.85)" xlink:href="#a"/><linearGradient id="aM" x1="37.34" y1="902.92" x2="36.37" y2="904.07" gradientTransform="matrix(-73.94 29.87 12.06 29.86 -7091.84 -27722.42)" xlink:href="#a"/><linearGradient id="aN" x1="37.42" y1="903.05" x2="36.44" y2="904.21" gradientTransform="matrix(-85.26 34.45 12.15 30.08 -6718.74 -28099.55)" xlink:href="#a"/><linearGradient id="aO" x1="37.47" y1="903.59" x2="36.5" y2="904.75" gradientTransform="matrix(-95.04 38.4 13.04 32.27 -7134.41 -30257.25)" xlink:href="#a"/><linearGradient id="aP" x1="37.52" y1="904.19" x2="36.54" y2="905.36" gradientTransform="matrix(-103.55 41.84 14.26 35.31 -7905.98 -33159.97)" xlink:href="#a"/><linearGradient id="aQ" x1="37.56" y1="904.8" x2="36.58" y2="905.96" gradientTransform="matrix(-111.03 44.86 15.84 39.21 -9034.11 -36831.67)" xlink:href="#a"/><linearGradient id="aR" x1="37.58" y1="905.34" x2="36.61" y2="906.5" gradientTransform="matrix(-117.71 47.56 17.59 43.55 -10356.27 -40894.34)" xlink:href="#a"/><linearGradient id="aS" x1="37.61" y1="905.84" x2="36.64" y2="906.99" gradientTransform="matrix(-123.81 50.02 19.6 48.5 -11925.64 -45506.77)" xlink:href="#a"/><linearGradient id="aT" x1="37.63" y1="906.28" x2="36.67" y2="907.42" gradientTransform="matrix(-129.54 52.34 21.77 53.89 -13666.86 -50505.14)" xlink:href="#a"/><linearGradient id="aU" x1="37.65" y1="906.64" x2="36.69" y2="907.78" gradientTransform="matrix(-135.1 54.58 24.12 59.69 -15566.24 -55876.66)" xlink:href="#a"/><linearGradient id="aV" x1="37.67" y1="906.97" x2="36.72" y2="908.1" gradientTransform="matrix(-140.64 56.82 26.6 65.84 -17594.87 -61562.74)" xlink:href="#a"/><linearGradient id="aW" x1="37.69" y1="907.25" x2="36.74" y2="908.37" gradientTransform="matrix(-146.34 59.12 29.2 72.27 -19720.7 -67509.42)" xlink:href="#a"/><linearGradient id="aX" x1="37.7" y1="907.49" x2="36.76" y2="908.61" gradientTransform="matrix(-152.34 61.55 31.91 78.99 -21942.9 -73727.23)" xlink:href="#a"/><linearGradient id="aY" x1="37.72" y1="907.69" x2="36.78" y2="908.81" gradientTransform="matrix(-158.8 64.16 34.65 85.76 -24164.74 -79993.05)" xlink:href="#a"/><linearGradient id="aZ" x1="37.74" y1="907.87" x2="36.8" y2="908.99" gradientTransform="matrix(-165.87 67.02 37.42 92.62 -26398.95 -86358.75)" xlink:href="#a"/><linearGradient id="ba" x1="37.76" y1="908.03" x2="36.82" y2="909.14" gradientTransform="matrix(-173.71 70.18 40.16 99.41 -28573.79 -92658.85)" xlink:href="#a"/><linearGradient id="bb" x1="37.78" y1="908.16" x2="36.84" y2="909.28" gradientTransform="matrix(-182.45 73.72 42.86 106.08 -30674.58 -98876.84)" xlink:href="#a"/><linearGradient id="bc" x1="37.8" y1="908.27" x2="36.86" y2="909.39" gradientTransform="matrix(-192.27 77.68 45.46 112.53 -32649.52 -104901.35)" xlink:href="#a"/><linearGradient id="bd" x1="37.82" y1="908.38" x2="36.88" y2="909.5" gradientTransform="matrix(-203.31 82.14 47.92 118.6 -34443.27 -110608.36)" xlink:href="#a"/><linearGradient id="be" x1="37.84" y1="908.47" x2="36.9" y2="909.59" gradientTransform="matrix(-215.75 87.17 50.18 124.21 -36009.98 -115909.84)" xlink:href="#a"/><linearGradient id="bf" x1="37.66" y1="906.02" x2="36.72" y2="907.14" gradientTransform="matrix(-304.99 123.22 36.54 90.43 -21908.79 -85853.37)" xlink:href="#a"/><linearGradient id="bg" x1="37.68" y1="905.31" x2="36.67" y2="906.51" gradientTransform="matrix(-300.21 121.29 30.5 75.5 -16571.3 -72195.35)" xlink:href="#a"/><linearGradient id="bh" x1="37.7" y1="904.18" x2="36.61" y2="905.48" gradientTransform="matrix(-292.8 118.3 24.19 59.87 -11075.91 -57866.88)" xlink:href="#a"/><linearGradient id="bi" x1="37.74" y1="902.34" x2="36.54" y2="903.77" gradientTransform="matrix(-281.97 113.92 18.04 44.65 -5857.73 -43858.88)" xlink:href="#a"/><linearGradient id="bj" x1="37.71" y1="898.98" x2="36.36" y2="900.58" gradientTransform="matrix(-266.9 107.84 12.4 30.7 -1265.36 -30949.59)" xlink:href="#a"/><linearGradient id="bk" x1="37.8" y1="894.02" x2="36.29" y2="895.82" gradientTransform="matrix(-246.83 99.73 8.49 21.01 1576.39 -21835.07)" xlink:href="#a"/><linearGradient id="bl" x1="38.18" y1="886.77" x2="36.51" y2="888.76" gradientTransform="matrix(-220.98 89.28 5.77 14.28 3119.1 -15324.55)" xlink:href="#a"/><linearGradient id="bm" x1="38.08" y1="887.73" x2="36.62" y2="889.47" gradientTransform="matrix(-198.36 80.14 5.93 14.69 2151.63 -15367.28)" xlink:href="#a"/><linearGradient id="bn" x1="37.79" y1="893.6" x2="36.58" y2="895.04" gradientTransform="matrix(-186.93 75.52 8 19.81 -133.02 -19862.13)" xlink:href="#a"/><linearGradient id="bo" x1="37.75" y1="897.7" x2="36.57" y2="899.1" gradientTransform="matrix(-177.1 71.55 10.75 26.6 -2970.4 -25895.83)" xlink:href="#a"/><linearGradient id="bp" x1="37.58" y1="900.73" x2="36.57" y2="901.93" gradientTransform="matrix(-168.72 68.17 14.07 34.83 -6284.84 -33265.03)" xlink:href="#a"/><linearGradient id="bq" x1="37.46" y1="902.95" x2="36.58" y2="903.99" gradientTransform="matrix(-161.65 65.31 18.19 45.02 -10275.34 -42445.64)" xlink:href="#a"/><linearGradient id="br" x1="37.82" y1="910.5" x2="37.07" y2="911.39" gradientTransform="matrix(-3005.485 1214.29476 -144.54945 -357.77243 245650.5 280639.15)" xlink:href="#a"/><linearGradient id="bs" x1="38.25" y1="913.02" x2="36.56" y2="915.03" gradientTransform="rotate(158 49080.772 20201.27) scale(2293.31 61.79)" xlink:href="#a"/><linearGradient id="bt" x1="38.18" y1="912.77" x2="36.64" y2="914.6" gradientTransform="matrix(-2143.71 866.11 -25.4 -62.86 104855.06 25347.04)" xlink:href="#a"/><linearGradient id="bu" x1="38.13" y1="912.55" x2="36.72" y2="914.23" gradientTransform="matrix(-2161.33974 873.23794 -27.70216 -68.56525 107616.31 30274.34)" xlink:href="#a"/><linearGradient id="bv" x1="38.08" y1="912.38" x2="36.78" y2="913.93" gradientTransform="matrix(-2179.21 880.46 -29.96 -74.14 110338.82 35079.94)" xlink:href="#a"/><linearGradient id="bw" x1="38.05" y1="912.22" x2="36.82" y2="913.69" gradientTransform="matrix(-2197.32 887.77 -32.26 -79.84 113115.9 39991.97)" xlink:href="#a"/><linearGradient id="bx" x1="38.02" y1="912.1" x2="36.85" y2="913.49" gradientTransform="rotate(158 53574.741 33655.824) scale(2389.66 92.13)" xlink:href="#a"/><linearGradient id="by" x1="38" y1="911.99" x2="36.87" y2="913.33" gradientTransform="matrix(-2234.23493 902.6895 -36.74516 -90.94746 118585.56 49535.64)" xlink:href="#a"/><linearGradient id="bz" x1="37.99" y1="911.89" x2="36.9" y2="913.18" gradientTransform="rotate(158 55376.68 38877.66) scale(2429.98 103.93)" xlink:href="#a"/><linearGradient id="bA" x1="37.97" y1="911.8" x2="36.92" y2="913.05" gradientTransform="matrix(-2272.0455 917.96597 -41.22546 -102.03658 124084.04 59050.11)" xlink:href="#a"/><linearGradient id="bB" x1="37.94" y1="911.7" x2="36.92" y2="912.92" gradientTransform="matrix(-2290.413 925.38692 -43.48433 -107.6275 126829.46 63859.94)" xlink:href="#a"/><linearGradient id="bC" x1="37.94" y1="911.63" x2="36.94" y2="912.82" gradientTransform="matrix(-2308.76197 932.80039 -45.62334 -112.92172 129466.51 68399.25)" xlink:href="#a"/><linearGradient id="bD" x1="37.93" y1="911.57" x2="36.96" y2="912.72" gradientTransform="matrix(-2327.08 940.2 -47.87 -118.47 132195.44 73173.46)" xlink:href="#a"/><linearGradient id="bE" x1="37.92" y1="911.5" x2="36.96" y2="912.63" gradientTransform="rotate(158 59858.96 51946.544) scale(2529.54 133.46)" xlink:href="#a"/><linearGradient id="bF" x1="37.92" y1="911.45" x2="36.99" y2="912.56" gradientTransform="matrix(-2363.56781 954.94338 -52.22016 -129.24943 137530.1 82428.51)" xlink:href="#a"/><linearGradient id="bG" x1="37.92" y1="911.4" x2="37" y2="912.5" gradientTransform="matrix(-2381.72207 962.27818 -54.33294 -134.47875 140135.31 86910.08)" xlink:href="#a"/><linearGradient id="bH" x1="37.92" y1="911.35" x2="37.01" y2="912.43" gradientTransform="rotate(158 62489.276 59583.54) scale(2588.26 150.71)" xlink:href="#a"/><linearGradient id="bI" x1="37.92" y1="911.31" x2="37.02" y2="912.37" gradientTransform="rotate(158 63359.924 62116.09) scale(2607.68 156.44)" xlink:href="#a"/><linearGradient id="bJ" x1="37.88" y1="911.23" x2="36.99" y2="912.29" gradientTransform="rotate(158 64211.317 64553.822) scale(2627.01 161.95)" xlink:href="#a"/><linearGradient id="bK" x1="37.87" y1="911.19" x2="36.99" y2="912.23" gradientTransform="rotate(158 65071.635 67050.304) scale(2646.25 167.59)" xlink:href="#a"/><linearGradient id="bL" x1="37.9" y1="911.17" x2="37.03" y2="912.2" gradientTransform="matrix(-2471.33 998.48 -64.98 -160.84 153196.16 109534.23)" xlink:href="#a"/><linearGradient id="bM" x1="37.87" y1="911.11" x2="37" y2="912.13" gradientTransform="rotate(158 66833.577 72276.222) scale(2684.49 179.39)" xlink:href="#a"/><linearGradient id="bN" x1="37.88" y1="911.08" x2="37.02" y2="912.1" gradientTransform="matrix(-2506.63 1012.74 -69.52 -172.07 158651.18 119213.24)" xlink:href="#a"/><linearGradient id="bO" x1="37.87" y1="911.04" x2="37.02" y2="912.05" gradientTransform="rotate(158 68616.72 77641.443) scale(2722.42 191.48)" xlink:href="#a"/><linearGradient id="bP" x1="37.87" y1="911" x2="37.02" y2="912.01" gradientTransform="matrix(-2541.67983 1026.9053 -73.9436 -183.01682 163994.51 128642.71)" xlink:href="#a"/><linearGradient id="bQ" x1="37.86" y1="910.96" x2="37.02" y2="911.96" gradientTransform="rotate(158 70390.911 82983.463) scale(2760.12 203.53)" xlink:href="#a"/><linearGradient id="bR" x1="37.85" y1="910.93" x2="37.02" y2="911.93" gradientTransform="matrix(-2576.56049 1040.998 -78.33024 -193.87414 169298.14 137991.9)" xlink:href="#a"/><linearGradient id="bS" x1="37.85" y1="910.9" x2="37.02" y2="911.89" gradientTransform="matrix(-2593.973 1048.03312 -80.64156 -199.59487 172053.52 142928.02)" xlink:href="#a"/><linearGradient id="bT" x1="37.84" y1="910.86" x2="37.01" y2="911.85" gradientTransform="matrix(-2611.38551 1055.06823 -82.85923 -205.0838 174726.36 147659.54)" xlink:href="#a"/><linearGradient id="bU" x1="37.83" y1="910.83" x2="37.01" y2="911.81" gradientTransform="matrix(-2628.83 1062.11 -85.06 -210.54 177387.99 152361)" xlink:href="#a"/><linearGradient id="bV" x1="37.83" y1="910.8" x2="37" y2="911.78" gradientTransform="matrix(-2646.30325 1069.17592 -86.83755 -214.93049 179658.63 156085.91)" xlink:href="#a"/><linearGradient id="bW" x1="37.82" y1="910.77" x2="37" y2="911.75" gradientTransform="matrix(-2663.85485 1076.26722 -89.32494 -221.08699 182582.02 161423.52)" xlink:href="#a"/><linearGradient id="bX" x1="37.81" y1="910.74" x2="37" y2="911.71" gradientTransform="matrix(-2681.48988 1083.39224 -91.69246 -226.9468 185398.9 166487.77)" xlink:href="#a"/><linearGradient id="bY" x1="37.81" y1="910.72" x2="37" y2="911.69" gradientTransform="matrix(-2699.24545 1090.56595 -93.88765 -232.38009 188064.07 171167.8)" xlink:href="#a"/><linearGradient id="bZ" x1="37.81" y1="910.7" x2="37" y2="911.67" gradientTransform="matrix(-2717.15865 1097.80335 -96.01542 -237.6465 190671.07 175683.99)" xlink:href="#a"/><linearGradient id="ca" x1="37.8" y1="910.68" x2="37" y2="911.64" gradientTransform="matrix(-2735.23873 1105.10818 -98.16566 -242.96853 193306.77 180251.9)" xlink:href="#a"/><linearGradient id="cb" x1="37.8" y1="910.66" x2="37" y2="911.62" gradientTransform="rotate(158 80053.038 111540.503) scale(2971 267.99)" xlink:href="#a"/><linearGradient id="cc" x1="37.83" y1="910.67" x2="37.03" y2="911.62" gradientTransform="rotate(158 80950.985 113988.062) scale(2992.74 273.55)" xlink:href="#a"/><linearGradient id="cd" x1="37.87" y1="910.68" x2="37.06" y2="911.63" gradientTransform="rotate(158 81870.214 116597.911) scale(3013.9 279.45)" xlink:href="#a"/><linearGradient id="ce" x1="37.87" y1="910.67" x2="37.07" y2="911.62" gradientTransform="rotate(158 82741.94 119024.6) scale(3034.49 284.95)" xlink:href="#a"/><linearGradient id="cf" x1="37.87" y1="910.65" x2="37.07" y2="911.6" gradientTransform="matrix(-2832.08 1144.23 -108.95 -269.67 206749.06 203075.18)" xlink:href="#a"/><linearGradient id="cg" x1="37.87" y1="910.63" x2="37.07" y2="911.58" gradientTransform="matrix(-2850.1 1151.51 -111 -274.74 209287.81 207414.53)" xlink:href="#a"/><linearGradient id="ch" x1="37.86" y1="910.61" x2="37.07" y2="911.56" gradientTransform="rotate(158 85321.254 126459.992) scale(3092.8 301.77)" xlink:href="#a"/><linearGradient id="ci" x1="37.86" y1="910.6" x2="37.06" y2="911.54" gradientTransform="matrix(-2884.5895 1165.44981 -115.15781 -285.02559 214363.37 216253.14)" xlink:href="#a"/><linearGradient id="cj" x1="37.85" y1="910.58" x2="37.06" y2="911.52" gradientTransform="matrix(-2901.09 1172.12 -117.23 -290.16 216870.3 220674.91)" xlink:href="#a"/><linearGradient id="ck" x1="37.85" y1="910.56" x2="37.06" y2="911.5" gradientTransform="matrix(-2917.13366 1178.5985 -119.33842 -295.37296 219386.11 225168.11)" xlink:href="#a"/><linearGradient id="cl" x1="37.84" y1="910.55" x2="37.05" y2="911.49" gradientTransform="matrix(-2932.73816 1184.90313 -121.38752 -300.44466 221835.27 229547.14)" xlink:href="#a"/><linearGradient id="cm" x1="37.84" y1="910.53" x2="37.05" y2="911.47" gradientTransform="matrix(-2947.94 1191.05 -123.48 -305.61 224306.93 234020.67)" xlink:href="#a"/><linearGradient id="cn" x1="37.83" y1="910.52" x2="37.05" y2="911.45" gradientTransform="rotate(158 90182.718 141190.847) scale(3195.45 334.97)" xlink:href="#a"/><linearGradient id="co" x1="37.83" y1="910.5" x2="37.04" y2="911.44" gradientTransform="matrix(-2977.28 1202.9 -127.52 -315.62 229085.36 242681.37)" xlink:href="#a"/><linearGradient id="cp" x1="37.82" y1="910.49" x2="37.04" y2="911.42" gradientTransform="matrix(-2991.50308 1208.6457 -129.59515 -320.75925 231506.41 247137.99)" xlink:href="#a"/><linearGradient id="cq" x1="37.61" y1="914.45" x2="36.74" y2="915.49" gradientTransform="matrix(-155.71126 62.91143 -23.06827 -57.09598 27583.76 50415.15)" xlink:href="#a"/><linearGradient id="cr" x1="37.59" y1="913.53" x2="36.75" y2="914.53" gradientTransform="matrix(-150.76 60.91 -28.73 -71.1 32568.65 63223.06)" xlink:href="#a"/><linearGradient id="cs" x1="37.57" y1="912.83" x2="36.75" y2="913.81" gradientTransform="matrix(-146.63413 59.24403 -35.22051 -87.17383 38346.53 77905.95)" xlink:href="#a"/><linearGradient id="ct" x1="37.57" y1="912.29" x2="36.77" y2="913.24" gradientTransform="matrix(-143.16646 57.843 -43.01982 -106.4778 45332.6 95508.67)" xlink:href="#a"/><linearGradient id="cu" x1="37.55" y1="911.9" x2="36.77" y2="912.83" gradientTransform="rotate(158 15245.184 61994.39) scale(151.21 136.43)" xlink:href="#a"/><linearGradient id="cv" x1="37.57" y1="911.56" x2="36.77" y2="912.52" gradientTransform="rotate(158 17240.364 72480.087) scale(148.38 159.46)" xlink:href="#a"/><linearGradient id="cw" x1="37.59" y1="911.3" x2="36.77" y2="912.29" gradientTransform="matrix(-135.14632 54.60266 -68.44062 -169.39649 68228 152857.73)" xlink:href="#a"/><linearGradient id="cx" x1="37.62" y1="911.11" x2="36.77" y2="912.11" gradientTransform="rotate(158 21257.474 93541.2) scale(143.17 205.72)" xlink:href="#a"/><linearGradient id="cy" x1="37.64" y1="910.95" x2="36.77" y2="911.98" gradientTransform="rotate(158 23197.572 103732.087) scale(140.46 228.1)" xlink:href="#a"/><linearGradient id="cz" x1="37.66" y1="910.82" x2="36.77" y2="911.89" gradientTransform="rotate(158 25039.994 113448.266) scale(137.47 249.44)" xlink:href="#a"/><linearGradient id="cA" x1="37.68" y1="910.71" x2="36.76" y2="911.82" gradientTransform="matrix(-124.289 50.21601 -100.8928 -249.71843 97440.08 226081.79)" xlink:href="#a"/><linearGradient id="cB" x1="37.7" y1="910.63" x2="36.75" y2="911.76" gradientTransform="matrix(-120.57099 48.71384 -107.66568 -266.48191 103484.2 241379.65)" xlink:href="#a"/><linearGradient id="cC" x1="37.72" y1="910.56" x2="36.74" y2="911.72" gradientTransform="matrix(-116.1854 46.94195 -113.61443 -281.2056 108760.72 254844.49)" xlink:href="#a"/><linearGradient id="cD" x1="37.73" y1="910.5" x2="36.73" y2="911.69" gradientTransform="matrix(-111.07 44.88 -118.62 -293.59 113145.28 266183.61)" xlink:href="#a"/><linearGradient id="cE" x1="37.74" y1="910.44" x2="36.71" y2="911.66" gradientTransform="rotate(158 31518.919 148879.358) scale(113.2 327.13)" xlink:href="#a"/><linearGradient id="cF" x1="37.75" y1="910.38" x2="36.68" y2="911.65" gradientTransform="matrix(-97.59 39.43 -125.27 -310.05 118739.09 281345.49)" xlink:href="#a"/><linearGradient id="cG" x1="37.75" y1="910.32" x2="36.64" y2="911.65" gradientTransform="matrix(-88.89 35.91 -126.66 -313.5 119707.04 284610.82)" xlink:href="#a"/><linearGradient id="cH" x1="37.74" y1="910.27" x2="36.58" y2="911.65" gradientTransform="rotate(158 31990.596 153922.916) scale(84.95 338)" xlink:href="#a"/><linearGradient id="cI" x1="37.74" y1="910.19" x2="36.49" y2="911.67" gradientTransform="rotate(158 31393.564 152058.324) scale(72.15 333.8)" xlink:href="#a"/><linearGradient id="cJ" x1="37.7" y1="910.13" x2="36.38" y2="911.7" gradientTransform="matrix(-56.81783 22.9559 -122.05057 -302.08577 114387.77 274688.55)" xlink:href="#a"/><linearGradient id="cK" x1="37.62" y1="910.1" x2="36.26" y2="911.72" gradientTransform="rotate(158 29351.908 143363.456) scale(52.63 314.54)" xlink:href="#a"/><linearGradient id="cL" x1="37.51" y1="910.1" x2="36.14" y2="911.73" gradientTransform="matrix(-42.6 17.21 -112.56 -278.61 105272.18 253521.32)" xlink:href="#a"/><linearGradient id="cM" x1="37.4" y1="910.11" x2="36.02" y2="911.75" gradientTransform="matrix(-37.8291 15.28395 -106.43697 -263.44075 99541.07 239782.94)" xlink:href="#a"/><linearGradient id="cN" x1="37.3" y1="910.15" x2="35.93" y2="911.78" gradientTransform="rotate(158 24794.43 121297.02) scale(36.82 265.93)" xlink:href="#a"/><linearGradient id="cO" x1="37.19" y1="910.26" x2="35.86" y2="911.84" gradientTransform="rotate(158 23022.458 112390.654) scale(34.03 246.33)" xlink:href="#a"/><linearGradient id="cP" x1="36.99" y1="910.48" x2="35.79" y2="911.91" gradientTransform="rotate(158 21167.637 103043.094) scale(31.43 225.77)" xlink:href="#a"/><linearGradient id="cQ" x1="36.81" y1="910.69" x2="35.71" y2="911.99" gradientTransform="rotate(158 19270.439 93442.674) scale(29.19 204.65)" xlink:href="#a"/><linearGradient id="cR" x1="36.62" y1="910.92" x2="35.62" y2="912.1" gradientTransform="matrix(-25.0896 10.13685 -68.69161 -170.0177 64838.23 154929.7)" xlink:href="#a"/><linearGradient id="cS" x1="36.38" y1="911.17" x2="35.48" y2="912.25" gradientTransform="rotate(158 15462.208 74187.678) scale(24.49 162.3)" xlink:href="#a"/><linearGradient id="cT" x1="36.06" y1="911.44" x2="35.23" y2="912.43" gradientTransform="rotate(158 13595.89 64867.09) scale(21.02 141.79)" xlink:href="#a"/><linearGradient id="cU" x1="35.83" y1="911.76" x2="35.08" y2="912.66" gradientTransform="rotate(158 11845.663 55949.147) scale(19.43 122.18)" xlink:href="#a"/><linearGradient id="cV" x1="35.97" y1="911.95" x2="35.21" y2="912.86" gradientTransform="matrix(-19.83246 8.01284 -38.88042 -96.23241 37609.29 87835.62)" xlink:href="#a"/><linearGradient id="cW" x1="36.19" y1="912.22" x2="35.4" y2="913.15" gradientTransform="matrix(-23.1147 9.33894 -32.5608 -80.59082 32001.29 73539.48)" xlink:href="#a"/><linearGradient id="cX" x1="37.81" y1="913.02" x2="36.9" y2="914.11" gradientTransform="matrix(-388.34169 156.90023 -43.34947 -107.29372 54137.36 92870.5)" xlink:href="#a"/><linearGradient id="cY" x1="37.8" y1="912.66" x2="36.9" y2="913.73" gradientTransform="matrix(-382.49 154.54 -48.62 -120.33 58739.84 104814.75)" xlink:href="#a"/><linearGradient id="cZ" x1="37.75" y1="912.34" x2="36.87" y2="913.38" gradientTransform="rotate(158 20321.068 64692.42) scale(404.48 144.18)" xlink:href="#a"/><linearGradient id="da" x1="37.69" y1="912.04" x2="36.83" y2="913.06" gradientTransform="matrix(-363.33554 146.79709 -60.21426 -149.03553 68636.28 131209.6)" xlink:href="#a"/><linearGradient id="db" x1="37.64" y1="911.87" x2="36.8" y2="912.87" gradientTransform="matrix(-346.11 139.84 -63.93 -158.23 71400.98 139817.18)" xlink:href="#a"/><linearGradient id="dc" x1="37.65" y1="911.84" x2="36.82" y2="912.84" gradientTransform="matrix(-331.45896 133.91811 -64.67583 -160.0783 71562.01 141711.2)" xlink:href="#a"/><linearGradient id="dd" x1="37.66" y1="911.86" x2="36.82" y2="912.86" gradientTransform="matrix(-323.08649 130.53541 -63.87417 -158.09412 70548.07 140023.4)" xlink:href="#a"/><linearGradient id="de" x1="37.67" y1="911.93" x2="36.83" y2="912.93" gradientTransform="matrix(-317.4492 128.2578 -61.6565 -152.6052 68343.24 135100.08)" xlink:href="#a"/><linearGradient id="df" x1="37.68" y1="912.05" x2="36.83" y2="913.05" gradientTransform="matrix(-313.87 126.81 -58.19 -144.03 65079.57 127338.04)" xlink:href="#a"/><linearGradient id="dg" x1="37.69" y1="912.22" x2="36.83" y2="913.24" gradientTransform="rotate(158 19066.451 64528.876) scale(336.07 143.31)" xlink:href="#a"/><linearGradient id="dh" x1="37.7" y1="912.47" x2="36.83" y2="913.49" gradientTransform="rotate(158 17790.406 58080.921) scale(334.22 129.13)" xlink:href="#a"/><linearGradient id="di" x1="37.71" y1="912.81" x2="36.83" y2="913.86" gradientTransform="matrix(-307.94557 124.41809 -42.54407 -105.30027 50687.77 92158.3)" xlink:href="#a"/><linearGradient id="dj" x1="37.73" y1="913.28" x2="36.83" y2="914.35" gradientTransform="matrix(-304.99 123.22 -36.54 -90.43 45132.32 78661.06)" xlink:href="#a"/><linearGradient id="dk" x1="37.76" y1="913.94" x2="36.83" y2="915.04" gradientTransform="matrix(-300.21 121.29 -30.5 -75.5 39484.13 65128.57)" xlink:href="#a"/><linearGradient id="dl" x1="37.76" y1="914.94" x2="36.8" y2="916.08" gradientTransform="matrix(-292.8 118.3 -24.19 -59.87 33483.8 51004.11)" xlink:href="#a"/><linearGradient id="dm" x1="37.73" y1="916.56" x2="36.72" y2="917.77" gradientTransform="rotate(158 10127.876 21324.748) scale(304.11 48.15)" xlink:href="#a"/><linearGradient id="dn" x1="37.71" y1="919.46" x2="36.6" y2="920.77" gradientTransform="matrix(-266.90842 107.838 -12.40322 -30.69906 21842.59 24826.45)" xlink:href="#a"/><linearGradient id="do" x1="37.82" y1="923.54" x2="36.54" y2="925.07" gradientTransform="matrix(-246.82561 99.72402 -8.48859 -21.00999 17555.3 16295.97)" xlink:href="#a"/><linearGradient id="dp" x1="38.03" y1="929.52" x2="36.64" y2="931.17" gradientTransform="rotate(158 6046.735 6645.026) scale(238.33 15.4)" xlink:href="#a"/><linearGradient id="dq" x1="37.82" y1="928.77" x2="36.73" y2="930.08" gradientTransform="matrix(-198.36 80.14 -5.93 -14.69 13476.19 11243.83)" xlink:href="#a"/><linearGradient id="dr" x1="37.61" y1="923.66" x2="36.66" y2="924.79" gradientTransform="matrix(-186.92954 75.52444 -8.00534 -19.81392 14955.14 16064.21)" xlink:href="#a"/><linearGradient id="ds" x1="37.68" y1="919.94" x2="36.69" y2="921.11" gradientTransform="matrix(-177.10139 71.5536 -10.74746 -26.6009 17105.45 22375.51)" xlink:href="#a"/><linearGradient id="dt" x1="37.66" y1="917.51" x2="36.72" y2="918.63" gradientTransform="matrix(-168.72 68.17 -14.07 -34.83 19840.32 29978.87)" xlink:href="#a"/><linearGradient id="du" x1="37.63" y1="915.73" x2="36.73" y2="916.8" gradientTransform="matrix(-161.64523 65.30891 -18.1909 -45.02405 23347.18 39354.87)" xlink:href="#a"/><linearGradient id="b" x1="37.6" y1="910.7" x2="36.84" y2="910.7" gradientTransform="matrix(117 0 0 -669 -2969 609602)" gradientUnits="userSpaceOnUse"><stop offset="0" stop-color="#fff"/><stop offset="1" stop-color="#fff" stop-opacity="0"/></linearGradient><linearGradient id="dv" x1="38.23" y1="911.33" x2="37.47" y2="911.33" gradientTransform="matrix(-117 0 0 -400 4480 365196)" xlink:href="#b"/></defs><title>home-middle-grid-xl</title><g opacity=".5" fill="none" stroke-width=".622"><g opacity=".706"><path d="M2359.68 61.89c-185.84 109.16-427.14 181.1-663 219.87-201.68 33.15-436.76 23-618.91 99.19-99.94 41.8-158.32 110.28-207.92 180.78-48.25 68.59-94.29 145.34-195.2 185-208.76 82.11-408-75.38-618.12-70.16-143.49 3.56-252.57 76.51-340 146.54-38.65 31-82 55.25-138.31 69.45-79.17 20-151.47 7.71-230.2-5.66 92.88 11.63 147.83-22 202.16-70 45.49-40.19 93.74-69.44 164.59-86.08 88.59-26.72 177.46-52.65 269.87-72.57 78.61-16.95 158.85-29.68 238.74-43.37 141.3-24.19 274.51-57.15 402.45-105.35 127.42-48 252.14-97.7 385.7-137.5 137.19-40.88 277.14-77.66 415.85-116 133.19-36.83 267.11-71.12 407.16-93.52 174.86-15.83 377-27.8 525.14-100.62z" stroke="url(#a)"/><path d="M1846.13 160.82c-142 22.67-278.05 56.34-413.34 93.26-140.57 38.37-282.4 75.39-420.68 117.53-134.58 41-259.14 93.09-387.6 142-127.29 48.51-260.61 80.14-401.94 103-82 13.23-164.22 25.57-244.73 42.66C-114.7 678.9-203.47 705-292 731.78" stroke="url(#c)"/><path d="M1857.52 160.34c-142.64 22.85-279.81 55.46-416.08 92.12-141.21 38-283.7 74.92-422 117.76-134.63 41.71-258.49 95-386.63 145-129 50.3-264.36 81.9-408.75 103.88-84.45 12.86-169.16 24.76-252 42-93.18 19.45-182.31 46-271.29 73" stroke="url(#d)"/><path d="M1868.83 159.73c-144.63 23.35-284.15 55.32-422.68 92.07-143.06 38-287.48 75.05-426.82 119.17-135.64 42.95-259.25 98.69-388.46 149.61C500.53 572 363 602 216.48 622.71 132 634.69 47.28 646-35.44 663.16c-93.3 19.34-182.3 46.17-271.23 73.3" stroke="url(#e)"/><path d="M1879.58 158.18c-146.65 24-288.64 55.28-429.49 92.12-144.91 37.9-291.28 75.12-431.64 120.54C883.72 414.44 761.88 471.56 633.62 523c-131.49 52.7-270.73 81.86-419.41 101.48-84.4 11.13-168.92 21.75-251.46 38.49-95.73 19.4-186.64 47.19-277.61 75.12" stroke="url(#f)"/><path d="M1892.28 157.09c-148.72 24.67-293.29 55.38-436.56 92.31-144.74 37.31-291 74.13-430.63 120-137.9 45.27-261.09 105.68-392.4 158.69-131 52.88-270.42 80.35-419 98.53-84.28 10.31-168.66 20.2-251 36.57-98.13 19.49-190.95 48.36-283.89 77.12" stroke="url(#g)"/><path d="M1903.58 156.47c-150.84 25.49-298.1 55.6-443.86 92.61-146.58 37.21-294.9 74.1-435.45 121.26-137 46-258.32 107.77-388.74 161.27-132.2 54.23-273.35 80.67-424.1 97.64C125 639 38.61 648.49-45.63 665.26c-98.16 19.54-190.75 49-283.58 78" stroke="url(#h)"/><path d="M1915.73 154.46c-150.94 26.06-299.13 55.07-445.54 91.58-148.39 37-298.76 73.88-440.43 122C891.44 415.08 770.38 479.12 639 533.84c-133.51 55.59-276.19 80.9-429.16 96.67-88.51 9.13-177 18.23-263.11 35.5-98.14 19.68-190.45 49.76-283.14 79" stroke="url(#i)"/><path d="M1928.44 153.4c-153.18 27.11-304.32 55.6-453.44 92.21-150.2 36.87-302.64 73.73-445.23 123.2-137.42 47.68-256.59 113.11-387.11 168.35C506 595 359.53 618.62 202.35 633.31c-86.41 8.08-172.66 16.57-256.64 33.22-100.42 19.91-194.45 51.28-289 81.39" stroke="url(#j)"/><path d="M1941 152.12c-155.47 28.2-309.69 56.33-461.54 93-152 36.71-306.53 73.52-450 124.33-138.43 49-257 117.16-388.82 173.18-134.31 57.06-279.18 79.1-434 92.15-88.3 7.44-176.51 15.22-262.31 32.13-102.64 20.18-198.33 52.93-294.67 83.94" stroke="url(#k)"/><path d="M1952.17 151.24c-158 27.91-314.84 57.09-469.09 93.73-151.79 36.03-306.37 72.34-449.08 123.4C892.25 419.07 773 491 637.88 548.44c-136.11 57.87-283.18 77.28-439.9 89-88.45 6.63-176.65 14.22-262.33 31.4-102.42 20.57-197.65 54.09-293.73 85.35" stroke="url(#l)"/><path d="M1964.82 150.08c-158.86 29-317.38 57.43-473.14 93.74-154.31 36-311.9 72.27-456.24 124.82-139.82 50.9-256.37 123.29-389.2 181.25-137.83 60.13-287 78.79-446.76 89.27-91 6-181.71 13.2-269.64 31.18-102.65 21-197.79 55.43-294 87.08" stroke="url(#m)"/><path d="M1975.89 149.06c-161.05 30.08-322.38 58.42-480.81 94.72-156.08 35.76-315.84 71.9-461 125.8-140.83 52.28-256.48 127.55-390.81 186.17-137.63 60.06-287.17 76.4-446.59 85.43-93.17 5.28-186 12.26-275.74 31.17C-181.32 693.9-275.83 729.1-371.75 761" stroke="url(#n)"/><path d="M1988.43 147.72c-161.26 30.83-323.44 58.77-482.66 94.49-157.78 35.41-319.78 71.27-466 126-142.34 53.25-257.3 131-392.69 190.9-141 62.39-294.27 76.15-457.84 84.07-91.08 4.4-181.69 11.09-269.31 29.67-104.23 22.09-200 58.8-297.58 91.55" stroke="url(#o)"/><path d="M1999.41 146.55C1834 179 1667 207.33 1503.17 243.57 1347.6 278 1187.6 312.84 1043.78 367 898 421.88 782.91 503.79 644 565c-139.09 61.31-290.61 73.37-451.69 79.68-93 3.65-185.65 9.69-275.06 28.81-106.12 22.7-203 61-302.26 94.62" stroke="url(#p)"/><path d="M2011.89 145.09c-165.72 33.28-333.44 61.45-498.17 97.1-159.25 34.47-323.59 69.44-470 125.52-145 55.53-257.75 139.08-396 200.71-142.65 63.58-297.77 72.79-463 78-93.24 2.94-185.83 9.17-275.09 29-105.47 23.5-201.45 62.58-300.27 96.33" stroke="url(#q)"/><path d="M2024.25 143.44c-168 34.61-338.41 63-505.94 98.6-160.87 34.2-327.74 68.78-474.78 126.27-144.11 56.35-254.84 141.14-392.24 203.4C509.37 636 354 643.88 189.17 647.56c-97.44 2.17-194.4 8-287.28 29.81-104.71 24.57-199.62 64.1-298.12 98" stroke="url(#r)"/><path d="M2035.13 142.1c-170.94 36.16-344.9 64.92-516 100.69-159.42 33.32-325 67-470.52 123.87-148.55 58.07-259.36 148-401.37 211.52-143.12 64.06-299.37 68.64-464.58 71.05-98.06 1.44-195.55 7.45-288.59 30.25-104.4 25.59-198.6 65.84-297.17 99.95" stroke="url(#s)"/><path d="M2047.47 140.41c-171.21 37.21-345.87 66.06-517.94 101.23-163 33.33-333.13 66.88-481.15 125.75-147.8 58.78-256.12 150.29-397.56 214.24C503.94 648 344.21 649.1 174.88 650.54c-98.43.83-195.76 7.42-288.63 31.29-103.45 26.57-196.44 67.4-294.59 101.49" stroke="url(#t)"/><path d="M2058.28 139c-173.41 38.75-350.73 68-525.68 103.14-164.63 33-337.27 66.12-485.95 126.36-147 59.56-253 152.46-393.75 217-146.35 66.97-306.13 66.58-475.11 66.5-98.09-.06-195.29 5.65-288 29.28-107.51 27.41-202.92 70.91-304.71 106.34" stroke="url(#u)"/><path d="M2070.48 137c-175.6 40.36-355.56 70.12-533.41 105.16-166.31 32.78-341.24 65.43-490.72 127C900 429.36 796.41 523.72 656.39 588.8 506.55 658.44 342.68 654 169.91 653c-98.61-.58-195.47 6-288 30.77-106.35 28.49-200.41 72.57-301.77 107.84" stroke="url(#v)"/><path d="M2081.24 135.48c-175.84 41.57-356.4 71.69-535.27 106.19-165.88 32-340.93 63.55-490.39 124.13C904.65 427 801.62 525.52 658.46 592.66c-151.62 71.12-317.11 63.93-491.75 61.65C64.31 653-34.81 660.58-130.2 687.6c-104 29.47-195.94 73.74-296 108.45" stroke="url(#w)"/><path d="M2093.27 133.27c-178.71 43.48-362.65 74.34-545.18 108.94-168.26 31.89-346.84 63-497.22 125.91-150.09 62.73-250.69 164-395.11 230.7-151 69.69-315.59 59.82-488.25 56.24-106.6-2.21-208.23 6.33-306.86 35.57C-241.65 721-331.8 765.78-431 800" stroke="url(#x)"/><path d="M2104.46 132.45c-180.8 45.28-367.31 76.86-552.78 111.38-167.94 31.25-346.48 61.52-496.55 124.07C902.88 431.36 804 535.51 658.38 603.61 503.74 675.93 335 661.21 158.71 657 50 654.43-51.06 664.93-150.76 695.76c-100 30.92-187.89 76.26-285.79 109.75" stroke="url(#y)"/><path d="M2116.49 130.23c-180.93 46.65-368 78.87-554.45 112.88-169.48 30.9-350.38 60.25-501.79 123.21-154.43 64.21-251.33 171.47-398.36 240.77C507.32 680 339.16 663.67 163 657.89 54.51 654.34-46.38 664.13-146 695c-103.62 32-193.42 80.34-295.1 114.71" stroke="url(#z)"/><path d="M2126.94 128.16c-183.65 48.77-374 81.92-564.19 116C1391 275 1206.33 303.78 1054.12 369.1c-74.4 31.9-138.43 72.72-198.66 116.25-62.38 45.09-122 93.39-197.7 128.35-156.24 72.14-325.37 51.41-501.49 44.95-110.61-4.06-211.66 7.51-312.41 40C-258 731.49-346 780.55-447.11 814.18" stroke="url(#A)"/><path d="M2139.17 126.29c-185.57 50.71-378.49 84.85-571.56 118.86-171.49 30.21-355.93 58-508 122.9-76.38 32.59-141.29 74.89-202.15 120-61.52 45.62-120.28 94.46-195.8 129.67-74.54 34.75-160.2 50.43-249.86 52.33-88.14 1.86-175.36-7.25-263.12-10.59-112.21-4.28-213.38 9.66-314.45 43.79-99.48 33.6-185.35 83-285.46 115.7" stroke="url(#B)"/><path d="M2149.78 124.48c-185.52 52.27-378.93 87.25-572.94 120.82-173 29.94-359.68 56.71-513.35 121.82-78.37 33.21-144.17 77.1-205.59 123.88-60.7 46.18-118.63 95.44-193.91 131-159.65 75.38-333 47.42-512.21 39-117.91-5.57-223.16 10.05-328.36 47.28-97.18 34.39-181 84.09-280.35 115.74" stroke="url(#C)"/><path d="M2160.11 122.22c-189.17 54.91-387.15 91.1-586 124.94-172.65 29.39-359.73 55.26-512.37 121-78 33.61-143 78-203.57 125.31-61.23 47.78-119.65 98.89-197.35 134.74C498 703.36 323.13 669.76 142.43 661.3c-119.14-5.58-224.56 12.54-329.59 51.5C-282.15 748-364 797.88-462.84 828.48" stroke="url(#D)"/><path d="M2170.39 119.84c-189.71 56.73-389 94-589.48 127.58-175 29.31-365.39 54.18-519.68 121.27-80 34.8-145.48 81.24-206.68 130.42-59.11 47.52-116.14 98.07-192.39 133.36-165.76 76.72-343.34 38-526.37 29.26C18 656.09-86 675.28-189.21 714.45-285.38 750.93-367.5 802.67-468.79 833" stroke="url(#E)"/><path d="M2182.62 118c-189.4 58.36-389.17 96.74-590.46 130-176.52 29.14-369.08 52.81-525.13 120-82.16 35.36-148.4 83.5-210 134.33-58.24 48-114.45 99.1-190.55 134.63-165.65 77.35-343.06 36.56-525.61 26.3C20.3 656.4-85.66 676.4-190.72 717.28c-96.85 37.69-178.59 91-282.07 120.84" stroke="url(#F)"/><path d="M2192.67 115.22c-192.79 61.2-397.14 101-603.23 134.45-176.11 28.6-369.1 51.27-524.17 119.06-81.84 35.79-147.2 84.5-207.94 135.87-57.33 48.53-110.64 97.2-188.7 135.89S505.87 690.8 408 687.41 224 668 131.46 663.1c-121-6.46-228.18 16.35-332 58.86-94.84 38.83-174.86 91.8-278.46 120.43" stroke="url(#G)"/><path d="M2203.4 113.63c-192.28 62.91-397.13 103.92-603.91 137.11-179.55 28.82-377.55 50.25-535.16 120.08-81.57 36.15-146 85.49-205.84 137.39-59.13 51.31-116.34 106.06-197.59 142.09-167.61 74.32-344.81 26-525.7 14.62C9.4 657-102.69 682.25-209.1 728c-93.1 40-171.46 92.49-275.56 119.88" stroke="url(#H)"/><path d="M2212 111.28c-193.56 65.25-401 107.67-610.41 140.85-180.94 28.66-382 48.88-540.21 120.1-81.32 36.61-144.8 86.44-203.74 138.9-58.2 51.87-114.55 107.13-195.71 143.38-171.82 76.74-352.67 21.49-537.28 10.75-126.08-7.31-239 20.79-343.86 68.18-91.53 41.38-168.43 93-273.33 119.17" stroke="url(#I)"/><path d="M2222 108.4c-195.48 67.91-406.24 111.82-619.15 145.09-179.54 28.06-378.48 47.06-536.24 116.75-82.24 36.32-146 86.71-204.45 139.88-57.65 52.45-112.79 108.67-193.22 146.1-175.61 81.73-361.53 19.45-550.68 9C-8.57 658.3-122.36 689-226.14 738c-90.86 42.78-166.55 93.85-273.08 118.84" stroke="url(#J)"/><path d="M2232.53 106.47c-194.64 69.68-405.88 115-619.28 148.12-183 28.41-387 45.88-547.41 117.63C983.85 408.9 921 460 863.46 513.6 805.49 567.71 750 626 666.7 663.46c-174.93 78.77-358 15.18-544.49 3.37-126.79-8-240.86 22.68-344.36 72-94.52 45-170.94 98.54-283.41 123.2" stroke="url(#K)"/><path d="M2242.35 103.33c-195.55 72.16-409.36 119-625.26 152.21-184.32 28.33-391.54 44.46-552.58 117.56-81.75 37.13-143.71 88.67-200.3 142.9C806 571.76 750 632 663.93 669.59c-178 77.69-362.93 7.47-550.68-3.12C-13 659.35-129 693.46-229.77 744-323.7 791-399.45 842.52-514 866.23" stroke="url(#L)"/><path d="M2251.34 101.6c-195.63 74.4-411.17 122.81-628.69 156-185.36 28.33-393.39 42.88-555.87 115.88-85.44 38.39-148.44 93-206.18 149.91-54.54 53.79-107.5 111.33-188.3 148.44-180.32 82.83-368 7.82-559.08-3.75-130.49-7.91-249.86 29.3-352 83.14-92.16 48.58-168.87 100.12-285.44 120.5" stroke="url(#M)"/><path d="M2261 98.27c-196.26 76.93-414.41 127-634.28 160.34-186.55 28.3-398 41.41-561.1 115.74-85.24 38.87-147.24 94-204.06 151.46-56.03 56.73-110.67 117.49-197.36 154.55-182.14 77.89-369.9-2.91-559.74-12.7-129.79-6.7-250.37 34-349.69 88.87-90.57 50.09-169.23 102.52-288.11 118.68" stroke="url(#N)"/><path d="M2269.91 96.34C2073.8 175.58 1854 227.22 1632.63 260.72c-187.56 28.38-399.94 39.91-564.5 114-85.4 38.46-147 93.66-202.82 151.42-54.87 56.79-107.66 118.29-192.48 156.51-184.47 83.12-375.16-2.87-568.2-13.48-129.29-7.11-249.9 34.07-348 89.29C-336.63 811-417.4 866.86-543 879.57" stroke="url(#O)"/><path d="M2278.07 93.21c-196.48 81.84-418.83 135.21-642.43 168.87-189 28.47-404.44 38.28-569.84 113.82-85.16 38.89-145.88 94.65-200.74 152.92-56.31 59.81-110.58 124.58-201.61 162.6-186.26 77.78-376.53-14-568.76-22.4-128.88-5.64-249.57 38.86-345.18 95.17-91.81 54.06-175.07 109.53-302.5 118" stroke="url(#P)"/><path d="M2286.82 91.08c-196 84.18-420.06 139.19-645 173.09-190 28.65-406.33 36.81-573.35 112-89.04 40.14-150.47 99.08-206.31 160.14C809.43 594 757.89 656 672.35 693.69c-188.72 83.18-381.81-14.24-577.28-23.31-132.72-6.16-256.33 42-352.48 101.27-90 55.47-176.36 109.49-304.67 113.78" stroke="url(#Q)"/><path d="M2294.91 87.82C2099.2 174.18 1874 231 1647.7 265.2c-189.22 28.6-403.28 35.29-571.42 107.85C986.09 412 923.75 470.4 868.73 531.78s-107.33 128.69-199 167.87c-188.84 80.7-380.79-19.5-574.8-29-134.22-6.59-259.35 43.76-354.93 104.69-89.81 57.29-180.35 112.22-311.5 111.66" stroke="url(#R)"/><path d="M2303.52 85.47c-193.89 88.23-419.27 146.58-645.38 181.17-192.55 29.45-412.23 34-583.19 108.51-90.1 39.26-151.48 98.37-205.5 160.25S764.09 665.21 672.38 704.59c-191 82-384.59-24-580.26-32.89-134.08-6.12-259 46.11-352.89 107.73-91 59.69-184.38 114.28-319.31 109.61" stroke="url(#S)"/><path d="M2311.49 82c-194.82 91.44-424 151.69-653.38 186.56-191.72 29.16-409.74 32.4-580.62 105.77-92.3 39.67-153.91 100.3-207.87 163.75S764.47 671.14 670 710.44c-193.06 80.3-387.17-31.74-583.8-38.92-135.61-4.94-260.3 51.14-353 114.38C-356.72 847.2-454 898-589 889.53" stroke="url(#T)"/><path d="M2320 79.47c-192.7 93.3-422 155.07-650.95 190.47-195.12 30.17-418.78 31.11-592.6 106.43-92.18 39.94-152.87 101.33-205.82 165.26s-103.17 134.2-197.7 173.68c-195.32 81.56-390.73-36.54-589.27-42.82-135.58-4.29-259.4 53.57-350.58 117.51-91.54 64.18-191.5 112.85-330.16 100.53" stroke="url(#U)"/><path d="M2326.44 76.24c-193.29 96.57-426.44 160.27-658.44 196-194.26 29.91-416.34 29.58-590.11 103.65-94.52 40.29-155.35 103.2-208.18 168.76-52.65 65.33-103 137.51-200.34 176.79-197.46 79.66-393-44.66-592.75-48.77-135-2.79-257.11 57-346.25 121.42-92.83 67-196.17 112.1-337.33 96.32" stroke="url(#V)"/><path d="M2334.85 73.53c-190.89 98.43-424 163.59-655.38 200-197.65 31.09-425.53 28.34-602.29 104.33-94.46 40.59-154.33 104.24-206.13 170.27-51.63 65.8-100.89 138.63-198.41 178.1-199.64 80.83-396.47-49.8-598.22-52.68-137.46-2-258.34 61.28-347.29 127.38-93.38 69.41-200.52 108.07-341.74 89.53" stroke="url(#W)"/><path d="M2341.22 70.19C2151.81 171 1917.35 237.8 1685.34 274.81 1486.65 306.49 1257.61 302 1079 377.34c-96.85 40.89-156.84 106.14-208.5 173.78-50.42 66-98.44 139.15-195.44 178.88C472 813.18 273.18 674 67.77 673.76c-137.12-.17-255.22 64.82-342.55 131.29-37 28.19-75.21 54.32-125.65 71-73.27 24.22-145.45 25-223.64 13.49" stroke="url(#X)"/><path d="M2348.08 67.69c-188.4 103.59-425.15 172.1-658.56 209.66-198.67 32-427 26-606.74 99.85-99.87 41-160.38 108.2-212 177.68-50.31 67.68-98.45 143.19-199 182.44-204.47 79.76-401.64-63.74-607.3-62.32-139.94.93-255.43 69.24-343.06 137.27-37.06 28.76-76.25 54-128 69.72-75.83 23.01-147.42 19.73-226.24 7.18" stroke="url(#Y)"/><path d="M2354.32 64.12c-187.22 106.37-426.26 176.61-661 214.76-200.27 32.56-431.67 24.55-612.76 99.51-99.93 41.36-159.38 109.27-210 179.23-49.26 68.18-96.31 144.21-197.07 183.74C467 822.41 268.6 671.82 60.82 675-79.46 677.22-192.54 747-279 815.62c-38.26 30.35-79.68 55.82-134.54 71-77.88 21.61-149.41 14-228.44.82" stroke="url(#Z)"/><path d="M147 683.4c72-6.52 108.42-32.86 135-78.53" stroke="url(#aa)"/><path d="M179.33 689c71.54-8.29 101.86-43.55 123.41-88.49" stroke="url(#ab)"/><path d="M211.93 696.58c70-12.17 94.62-55.62 111.89-99.94" stroke="url(#ac)"/><path d="M244.31 705.11c67.55-11.92 88.3-72.87 100.44-112.56" stroke="url(#ad)"/><path d="M276.29 714c64.22-19.19 79.43-84.93 89.09-126" stroke="url(#ae)"/><path d="M308.22 723.42c59.39-29.26 70.19-94.61 77.84-140" stroke="url(#af)"/><path d="M340 732.91c53.46-38.49 61.18-104.18 66.7-154.12" stroke="url(#ag)"/><path d="M372.52 741c46.64-47.18 52.66-113.1 55.68-168.14" stroke="url(#ah)"/><path d="M403.76 749.53c39.52-54.89 44.63-121.67 44.78-181.72" stroke="url(#ai)"/><path d="M434.68 757c32.57-61.24 37.08-130.07 34-194.56" stroke="url(#aj)"/><path d="M464.85 762.32C489.7 695 494.79 625 488.24 555.94" stroke="url(#ak)"/><path d="M495.56 767.52c19.53-71.43 23.26-144.6 12.9-216.87" stroke="url(#al)"/><path d="M526.63 769.18c14.83-74.8 17-150.89 2.58-225.78" stroke="url(#am)"/><path d="M556.43 770.06c10.6-77.54 10.71-155.9-7.55-232.89" stroke="url(#an)"/><path d="M587.5 768.29c6.84-79.15 6-160-17.58-237.87" stroke="url(#ao)"/><path d="M616.66 763.62c3.43-79.9 1.8-162.68-27.67-240.46" stroke="url(#ap)"/><path d="M646 756.61c.36-80.39-4-162.9-37.77-240.42" stroke="url(#aq)"/><path d="M675 746.25c-1.52-79.61-10.51-161.62-47.85-237.52" stroke="url(#ar)"/><path d="M704.64 733.44c-6.22-77.55-17.82-158.38-58.15-231.55" stroke="url(#as)"/><path d="M730.74 718.17c-9.59-74.91-22.64-153.67-65.29-223.64" stroke="url(#at)"/><path d="M755 701.11c-11.43-71.56-25.24-148-69.59-214.08" stroke="url(#au)"/><path d="M774.94 683c-12-67.83-25.87-141.36-71.5-203.11" stroke="url(#av)"/><path d="M793.69 662.88c-11.63-63.75-25-134-71.43-191" stroke="url(#aw)"/><path d="M811.35 643.09c-10.54-59.47-22.93-126-69.8-177.94" stroke="url(#ax)"/><path d="M828.19 621.23c-8.81-54.36-19.5-118.18-67-164.17" stroke="url(#ay)"/><path d="M843.42 599.83c-6.81-49.44-16.23-109.59-63.41-149.92" stroke="url(#az)"/><path d="M858.32 578.51c-4.71-44.8-12.58-100.59-59.38-135.37" stroke="url(#aA)"/><path d="M874.55 556.82c-2.63-40.27-9-91.45-55.27-120.71" stroke="url(#aB)"/><path d="M889.18 534.44c-.74-36.77-6.2-81.22-51.4-106.16" stroke="url(#aC)"/><path d="M905.79 513.79c1-36-5.35-68.32-48.06-91.87" stroke="url(#aD)"/><path d="M923.52 492.83c2.44-29-2.12-63.6-45.57-78" stroke="url(#aE)"/><path d="M942.44 472.68c3.53-29.26-3.6-51.05-44.2-64.73" stroke="url(#aF)"/><path d="M961.47 453.65c3.55-27.69-5.78-42.78-44.21-52.21" stroke="url(#aG)"/><path d="M984 434.8c3.19-25.64-10.1-35.69-45.84-40.57" stroke="url(#aH)"/><path d="M1006.66 418.19c-.12-24.54-15.73-28-49.33-29.94" stroke="url(#aI)"/><path d="M1033.67 402.67c4.09-23.28-33.35-21.25-54.89-20.45" stroke="url(#aJ)"/><path d="M1061.73 388c-3.87-21.78-43-14.56-62.73-12.23" stroke="url(#aK)"/><path d="M1093.39 374.62c-13.71-19.76-51.15-9.43-73-5.37" stroke="url(#aL)"/><path d="M1126.62 363.09c-23.85-17.4-58.74-6.74-86 0" stroke="url(#aM)"/><path d="M1159.57 353.93c-24.86-20.17-69.66-4.74-97.3 3.19" stroke="url(#aN)"/><path d="M1190.24 346.55c-24-24.18-81-3.48-107.6 5" stroke="url(#aO)"/><path d="M1220.9 339.17c-26.06-27-88.23-4-117.08 5.73" stroke="url(#aP)"/><path d="M1251.29 334.16c-30.16-29.27-92.34-6.36-126 5.45" stroke="url(#aQ)"/><path d="M1280.25 329.54c-32-32.23-97.65-8.61-134.37 4.36" stroke="url(#aR)"/><path d="M1309.2 324.93c-33.83-35.07-101.73-11.85-142.49 2.6" stroke="url(#aS)"/><path d="M1338.73 321.3c-43.09-34.62-99.53-17.51-150.5.31" stroke="url(#aT)"/><path d="M1368.85 318.65c-44.5-37.07-104.48-21.11-158.54-2.35" stroke="url(#aU)"/><path d="M1397 315.42c-47.25-39.17-108.16-25.15-166.72-5.3" stroke="url(#aV)"/><path d="M1427.06 312.77c-50.36-40.9-111.92-29.26-175.16-8.39" stroke="url(#aW)"/><path d="M1457.17 310.13c-53.42-42.44-115.87-33.56-184-11.53" stroke="url(#aX)"/><path d="M1487.28 307.48c-57.46-43.2-120.23-37.48-193.28-14.58" stroke="url(#aY)"/><path d="M1518.82 304.44c-61.74-43.6-125.37-41.17-203.2-17.47" stroke="url(#aZ)"/><path d="M1550.37 301.39c-66.9-43.16-131-44.33-213.84-20.06" stroke="url(#ba)"/><path d="M1583.34 298c-72.06-41.95-138-47-225.31-22.26" stroke="url(#bb)"/><path d="M1617.18 293.13c-32.81-16.8-67.1-33.28-108.18-38.48-45.18-5.73-87.93 3.21-129.56 14.5" stroke="url(#bc)"/><path d="M1651 288.3c-36.58-16.15-73.71-32.5-117.12-38.19-46.9-6.16-90.27 1.66-134.12 13.11" stroke="url(#bd)"/><path d="M1687.7 282.68c-40.5-15-81.3-31.29-127-37.38-48.54-6.46-93.08.51-138.92 11.89" stroke="url(#be)"/><path d="M-249.53 794.88C-221.35 745-172.88 710.2-105.29 684c40.08-15.55 83.78-21.4 125.73-33.52" stroke="url(#bf)"/><path d="M-228.46 778.72c34-46.59 86.47-78.83 153.75-102.54 37.5-13.22 79.83-17.41 117.63-30" stroke="url(#bg)"/><path d="M-204.19 762.81C-165.92 722.05-111 690.4-46 671c36.53-10.9 76.82-15 111.81-28.43" stroke="url(#bh)"/><path d="M-176.49 746c42.26-34.86 96.33-63.75 158.65-79.75 35.57-9.12 73.73-13.62 106.05-28" stroke="url(#bi)"/><path d="M-144 728.9C-99.2 700-48.48 675.15 10.35 662c34.66-7.73 70.46-13 100.17-28.46" stroke="url(#bj)"/><path d="M-106.16 713.81C-59.92 690.23-17 672 37.73 660.68c33.88-7 67.37-13.48 94.45-29.95" stroke="url(#bk)"/><path d="M-60.55 697.69c42.17-18.37 79-29.64 126.64-39 32.42-6.4 65-14.79 88.57-32.22" stroke="url(#bl)"/><path d="M-18.15 685.36c64.73-24.42 141.42-24.05 193.86-62.81" stroke="url(#bm)"/><path d="M15.16 679.7c67.5-18.05 134-18.91 182-60.34" stroke="url(#bn)"/><path d="M48.34 677c69.77-12.92 127.08-17 170.19-61" stroke="url(#bo)"/><path d="M80.89 676.12c70.8-8.94 120.65-19.27 158.41-64.47" stroke="url(#bp)"/><path d="M113.76 678.34c71.71-6.8 114.57-24.52 146.68-70.42" stroke="url(#bq)"/></g><g data-name="Group-11-Copy" opacity=".706"><path data-name="Stroke-1" d="M2836.84-101.27C2593-91 2346.74-27.38 2137.93 57.47c-178.54 72.55-337.42 192.2-545.35 224.47-114.08 17.7-225.22-3.66-332.07-30.67-104-26.27-214.57-59.48-327.23-39.8-233.06 40.72-217.42 249.26-373.8 345.92-106.82 66-258.93 65.68-392.49 57.07-59.08-3.81-114.79-.54-169.62 16.15-77.11 23.47-116.73 66.85-159.87 114.1C-107.43 692-34 689.87 53.57 698.43c73.3 7.16 137.54 5.14 205.3-16.76 90.71-23.12 180.81-46.94 267.4-76.78 73.66-25.38 144.23-54.57 215.51-82.89 126.08-50.15 255.22-90.12 395.87-116.6 140.12-26.37 280-50.23 416.27-85.44 139.95-36.16 277.75-76.6 416.26-115.31 133-37.17 263.94-76.51 387.3-127.34 141.79-72.14 299.28-160.15 479.36-178.58z" stroke="url(#br)"/><path data-name="Stroke-3" d="M2367.56 73c-125 51.54-256.9 92.37-391.5 130.47-139.85 39.62-279.25 80.78-421.26 116.53-138.22 34.82-280.39 56.89-422.23 83.07C992 429.06 864.19 470 739.5 521.16c-72.32 29.66-144 60.1-219.11 86.3-86.39 30.1-176.61 53.75-267.33 76.82" stroke="url(#bs)"/><path data-name="Stroke-5" d="M2376.23 67.93c-125.68 51.74-257.27 93.85-392.31 132.61-139.93 40.16-279.71 81.7-422.44 117-139 34.34-281.87 55.19-424.49 80.5-143.6 25.48-272.86 67.44-398.92 120.64-73.72 31.11-146.67 63.05-223.72 90.2-86.67 30.55-177.55 54.08-268.81 77.19" stroke="url(#bt)"/><path data-name="Stroke-7" d="M2385 63c-127.61 52.34-260.26 96-397 135.8-141.22 41.07-282.56 83.42-427.33 118.28C1419.7 351 1274.5 370 1130.16 395.09 984.54 420.44 855.31 464.6 729 519.68c-72.93 31.78-145.29 64.11-222.1 91.32-86.64 30.68-177.74 53.92-269.1 76.91" stroke="url(#bu)"/><path data-name="Stroke-9" d="M2394.28 58.94c-129.69 52.85-263.44 98.19-402 139-142.5 42-285.37 85.19-432.19 119.6-140.93 33-286.24 50.19-430.4 74.51C981.94 417 852.33 462.58 725.58 519.53c-72 32.33-143.47 65.09-219.74 92.5-88.46 31.8-181.91 55.26-275.55 78.65" stroke="url(#bv)"/><path data-name="Stroke-11" d="M2404.51 53.65C2272.62 107 2137.62 154 1997.29 195.91c-141.79 42.35-284.21 85.79-430.9 119.53-144.93 33.33-294.52 48.74-442.51 73.38C976.24 413.4 848.24 460.27 723 518.23c-71 32.87-141.72 66.08-217.49 93.68-90.28 32.87-186.18 56.47-282.08 80.2" stroke="url(#bw)"/><path data-name="Stroke-13" d="M2413.26 48.7C2279 102.46 2142.7 151.19 2000.48 194.23c-143 43.29-286.94 87.65-435.66 120.9-145 32.41-294.62 45.95-442.45 69.8-149.85 24.18-278.07 72.62-403.65 132.46-72 34.3-143.74 68.77-221.27 97-90.34 32.86-186.68 55.93-282.71 79.45" stroke="url(#bx)"/><path data-name="Stroke-15" d="M2424 44.34c-134.89 53.4-270.78 103.36-412.95 147.07-144.1 44.31-289.5 89.65-440 122.73-147 32.3-298.71 44.09-448.49 67.55-152.16 23.82-280.35 73.82-406.31 135.58-72.87 35.73-145.7 71.49-225.08 100.23-90.47 32.75-187.24 55.23-283.41 78.5" stroke="url(#by)"/><path data-name="Stroke-17" d="M2434.25 39C2296.7 92.74 2159.18 144.47 2015 189.41c-145.26 45.27-292.14 91.61-444.65 124.18-147 31.4-298.79 41.29-448.45 63.94-156.66 23.72-285.9 76.73-413.81 141.29-70.31 35.49-140.93 70.6-218.15 98.76-92.34 33.68-191.64 56.06-290 79.59" stroke="url(#bz)"/><path data-name="Stroke-19" d="M2444.59 33.94c-140.3 54-279.64 107.49-425.9 153.69S1724 281.26 1569.47 313.29c-149.07 30.9-303.15 38.54-454.53 61.26-154.23 23.15-280.69 76.54-405.22 141.15-71.06 36.86-142.41 73.4-221.15 102.3-94.21 34.55-196.1 56.71-296.72 80.46" stroke="url(#bA)"/><path data-name="Stroke-21" d="M2453.5 29.24C2311.69 84.67 2169.39 138.65 2021.43 186c-145.59 46.62-293.41 94.4-447.65 125.9-153.12 31.26-311.49 36.52-466.72 59.78-156.33 23.42-281.71 79.76-406.3 146.22-70.32 37.51-141.43 74.21-220.41 102.8-94.41 34.17-196.75 55.57-297.43 79" stroke="url(#bB)"/><path data-name="Stroke-23" d="M2463.77 24c-143.52 55.09-286.29 110.39-435 158.71-147.32 47.89-297.33 97.1-454.21 128.29-152 30.21-308.9 33.84-463 55.64-159.85 22.62-286 80.48-411.5 149.32-71.47 39.2-144 77.36-225.44 106.45-95 34-198.24 54.66-299.42 77.9" stroke="url(#bC)"/><path data-name="Stroke-25" d="M2472.76 19.47c-146.22 55.33-290.87 112.06-441.48 161.67C1882.9 230 1731.48 280.38 1572.65 311c-154.08 29.7-313.27 30.83-469.08 52.86-159.64 22.58-283.7 82.31-407.5 152-72.35 40.74-146.17 80.08-229.82 109.38-95.31 33.38-198.84 53.23-300 76.14" stroke="url(#bD)"/><path data-name="Stroke-27" d="M2483.14 14.43c-147.13 54.91-292 112.33-442.6 162.73-149.24 50-302 101.58-462.4 132.12C1422 339 1260.8 338 1102.93 359.66 938.5 382.18 814.37 445.53 688.71 518c-70 40.36-141.9 78.86-223.68 107.38-97.27 33.92-203.22 53.28-306.49 76.37" stroke="url(#bE)"/><path data-name="Stroke-29" d="M2492.22 10c-151.74 55.78-300.46 115.15-454.92 167.4-146.65 49.6-296.94 101-455.07 130.78-160.23 30.22-325.76 26.32-487.48 48.67C932.8 379.23 811.63 443 689.39 515.43c-70.59 41.83-143.34 81.76-226.95 110.74-99.25 34.39-207.64 53.16-312.95 76.41" stroke="url(#bF)"/><path data-name="Stroke-31" d="M2502.66 5.11c-152.8 55.28-301.89 115.17-456.38 168.26-149.35 51.33-302.87 104.72-464.81 134.37-160.38 29.36-325.83 23.14-487.49 44.89-166.81 22.44-287.69 90-411.79 165.18C612.16 560.26 539.27 600 455 628.41c-99.58 33.54-208.07 51.3-313.24 74.25" stroke="url(#bG)"/><path data-name="Stroke-33" d="M2513.23.39c-155.75 55.38-307 116.45-463.49 170.9-150.25 52.29-305.2 107.17-469 136.1-160.56 28.34-325.82 20.27-487.51 41.16-167 21.58-286.69 90.17-409 166.32-72.28 45-147.94 87.14-236.75 115.86-100.12 32.37-208.3 49.31-313.36 72" stroke="url(#bH)"/><path data-name="Stroke-35" d="M2522.41-3.84c-159.47 55.69-313.65 118.15-472.84 174.21-148.32 52.22-301.39 107.14-463.57 135.78-165.48 29.23-335.94 17.54-502.27 39.69-167.62 22.32-284.65 93.71-405.93 170.94-72 45.83-148.18 88.11-238.13 116.18-100.89 31.49-209.3 47.56-314.67 70.14" stroke="url(#bI)"/><path data-name="Stroke-37" d="M2533-8.52c-160.73 55.06-315.49 117.79-474.78 174.73-150.9 53.94-307.16 111.12-473.07 139.52-165.66 28.36-336 14.31-502.27 35.91-172.71 22.43-288.68 98-411.93 177.91C599.3 566 522.62 607.78 431.73 635c-101.25 30.33-209.36 45.41-314.38 67.8" stroke="url(#bJ)"/><path data-name="Stroke-39" d="M2542.24-12.64c-163.87 55-321 118.71-482.27 177.07-151.78 54.91-309.37 113.64-477.14 141.36-165.86 27.41-335.92 11.27-502.27 32.14-173 21.71-287.53 98.36-409 179.2-70.5 46.92-146.18 89.28-236.72 116.58-105 31.67-217.56 46-326.55 69.15" stroke="url(#bK)"/><path data-name="Stroke-41" d="M2553-17.09c-167.05 54.9-326.55 119.51-489.87 179.31-152.73 55.92-311.52 116-481.17 143.23-166.05 26.61-335.85 8.26-502.28 28.37-178.13 21.53-291.5 103.07-414.75 186.37-70.35 47.55-146.64 89.14-238.27 115.55-105.27 30.34-217.43 43.58-326 66.66" stroke="url(#bL)"/><path data-name="Stroke-43" d="M2562.26-21.12C2393.8 33 2233.5 97.66 2070 158.33c-151.62 56.27-309.39 117.25-478.07 145.11-170.32 28.13-343.93 6.48-514.7 26.61-180.86 21.31-292.65 105.58-416 190.69-72.31 49.91-151.29 91.81-247.19 118-104.59 28.53-215.39 40.61-322.41 63.46" stroke="url(#bM)"/><path data-name="Stroke-45" d="M2573.15-25.28C2400.69 28.86 2237.22 94.58 2071 156.94c-153.25 57.48-313.16 120.42-484.8 147.06-171.3 26.61-346 1.81-517.13 22.9-179 22.05-287.41 107.8-408 192.9-74.45 52.54-156.18 95-256.64 121.08C300.22 668 190.11 678.83 84.18 701.63" stroke="url(#bN)"/><path data-name="Stroke-47" d="M2582-30c-175.75 53.8-341.8 120.23-510.07 184.05-152.36 57.79-311.34 121.36-482.44 148.09-173.59 27.12-349.88-.53-523.38 20.07-184.25 21.89-290.76 113.13-413.35 200.41-75.57 53.81-158.88 94.57-261.73 120-103.15 25.55-212.14 35-316.37 57.65" stroke="url(#bO)"/><path data-name="Stroke-49" d="M2592.92-34.18c-177.26 52.91-344.33 119.18-512.8 183.8-153.12 58.77-312.88 124.13-485.35 151.21-175.92 27.62-353.91-3.22-529.64 17.2C880.37 339.5 775.85 431.59 655 519.94c-74.45 54.41-156.91 95.6-259.7 121-106.95 26.48-220.3 34.65-328.16 58.54" stroke="url(#bP)"/><path data-name="Stroke-51" d="M2602.52-37.69c-181.34 52.7-351.77 119.84-523 186.21-154.66 60-316.56 127.48-492 153.24-85.76 12.59-173 13.86-260.27 11.33-90.4-2.62-182-8.89-271.8 2.16C870.26 338 769.54 433.79 649.36 522.61c-75.47 55.79-159.84 95.76-265.1 120.55C277.83 668.23 165 675 58.3 699.13" stroke="url(#bQ)"/><path data-name="Stroke-53" d="M2613.21-42.19C2428.48 10 2255.28 77.67 2082.06 145.49c-153.86 60.24-314.59 128.4-489.51 154.4-87.84 13.11-177.24 13.67-266.55 10.29-90.32-3.42-181.9-10.46-271.77.31-88.7 10.63-164.57 40.33-231 81.82-65.28 40.78-120.41 89-180.16 133.34-76.4 56.71-163.24 95-270.41 118.8-105.49 23.38-217.17 28.86-322.16 53.21" stroke="url(#bR)"/><path data-name="Stroke-55" d="M2622.66-46C2436.44 5.1 2262 72.39 2088.55 141c-154.71 61.17-316 131.12-492.26 157.73-89.9 13.58-181.55 13.45-272.91 9.19-90.28-4.2-181.69-11.95-271.73-1.54-190.94 22.09-287.4 125-407.78 216.8-79.2 60.36-170.67 99.43-283.94 122.94-104.62 21.7-215.1 26-318.51 50.73" stroke="url(#bS)"/><path data-name="Stroke-57" d="M2632.38-49.28C2440.87 1.64 2261.91 70.24 2084.7 140.93c-153.86 61.39-314.56 132.19-490.7 157.86-90.07 13.13-181.67 12.22-273 7.16-92.28-5.11-185.9-13.94-278-2.6-193 23.77-284.87 131.52-406.31 224-80.07 61-174.19 98.31-289.08 120.49-103.91 20.05-213.13 23.33-315.1 48.55" stroke="url(#bT)"/><path data-name="Stroke-59" d="M2642.17-52.48c-193.73 49.87-374.72 118.31-552.84 190-155.44 62.55-317.54 135.67-496.25 161.16-92.71 13.22-186.67 11.09-280.35 5-90.49-5.93-182.55-15-273-4-196.7 24-285.36 136.76-408.18 230.54-79.07 60.38-173.19 96.24-287 117.41-106 19.73-217.31 21.76-320.82 48.34" stroke="url(#bU)"/><path data-name="Stroke-61" d="M2652.86-57c-195.16 48.55-377.62 116.42-556 188.73C1940.5 195.16 1778.1 270.17 1598 296.44c-94.81 13.83-191.06 10.86-286.72 3.76-90.38-6.71-182.39-16.58-273-5.77-66.34 7.92-120.15 28.66-164 50.34-86.64 42.8-143.16 104.14-240.6 182-77.38 61.82-176.26 98.74-293.11 119.55-107.71 19.18-220.32 19.91-324.9 47.89" stroke="url(#bV)"/><path data-name="Stroke-63" d="M2662.87-59.8c-200.47 48.11-387.63 117.18-569.66 191.61-155.57 63.6-317.28 139.53-497.27 164.88-95 13.38-191.19 9.58-286.75 1.66-90.27-7.49-182.18-18.14-272.93-7.57-93 10.84-170.17 45.12-234.15 92.13C738.57 429.59 688.63 483.47 627 531.27c-80.55 62.5-180.64 97.3-298.24 116.35C221.35 665 110.31 665.15 6.86 694.09" stroke="url(#bW)"/><path data-name="Stroke-65" d="M2672.19-63.79c-201.82 46.65-390.59 115.06-572.84 190-158.25 65.11-322.35 144.33-506.19 169.43-95.18 13-191.36 8.3-286.78-.44-94.34-8.65-190.77-20.69-285.59-7.77-195.61 26.64-274.23 146.14-392.91 240.74-82.54 65.83-188.63 101.24-311.35 119.2-107.37 15.71-216.71 15.42-319.26 45.47" stroke="url(#bX)"/><path data-name="Stroke-67" d="M2680.77-66.22C2475.65-20.64 2283.64 48 2099.47 124.22c-159.09 65.87-324.12 147.41-509.84 171.8-95.46 12.54-191.44 7-286.8-2.53-94.2-9.45-190.57-22.3-285.54-9.58C816.21 310.83 741.94 437 619.94 533 536.63 598.49 427 632.26 303.76 648.28c-107.61 14-215.09 13.58-316.93 44.92" stroke="url(#bY)"/><path data-name="Stroke-69" d="M2690.85-68.92C2481.67-24.34 2285.74 44.82 2099 122.65c-157.48 65.63-319.77 147-503.61 172.32-95.83 13.18-192.57 7.41-288.29-2.9-94.42-10.18-190.85-24.27-286.49-12.75C811.77 304.47 740.9 438.13 615.34 536c-84.2 65.63-197.09 97.9-321.14 112.32C185.65 661 79.61 660.4-22.25 693.35" stroke="url(#bZ)"/><path data-name="Stroke-71" d="M2700.38-72.56c-210.37 42.9-408.06 111.28-595 189.44-160.32 67-324.7 152-512.54 177-96 12.8-192.78 6.15-288.31-5-96.33-11.22-195.07-26.58-292.83-13.75C806.32 302.14 738.83 435.37 616.6 533c-83.09 66.38-196.16 98.81-320.37 112.82C182.78 658.62 73.78 656.65-32 692.67" stroke="url(#ca)"/><path data-name="Stroke-73" d="M2710.61-75C2497.09-33.44 2296 35 2107.16 114.36 1946 182.08 1780.65 269.55 1591 293.91c-96.29 12.37-192.89 4.91-288.32-7-98.23-12.29-199.28-28.9-299.16-14.78-206.52 29.16-268.64 168.06-393 265.42C526.91 603 409 633.91 285.55 645.77 170.49 656.82 64 656-42.36 693.66" stroke="url(#cb)"/><path data-name="Stroke-75" d="M2718.82-78C2503-38.06 2299.07 30.14 2109 110.19c-161.94 68.22-326.27 157.18-516.84 182.33-100.23 13.22-200.65 4.07-299.67-9.29-93.54-12.62-189.72-28.7-285.32-16.78-213.3 26.61-272.58 170.27-398.35 269.92-85.88 68.06-209.32 98.35-337.13 108.43-115.34 9.1-222.56 8.69-327 49.75" stroke="url(#cc)"/><path data-name="Stroke-77" d="M2729.17-80.29C2510.32-41.82 2302.85 26.43 2111 107.53c-162.74 68.82-328.11 160.47-520.46 184.93-100.55 12.79-200.77 2.79-299.69-11.41-97.6-14-198.25-31.6-298-16.83C783.16 295.25 729.68 443.12 603 540.9c-86.61 66.85-214.38 95.24-341.27 103.21-115.73 7.26-225.24 7.13-327.06 52.33" stroke="url(#cd)"/><path data-name="Stroke-79" d="M2737.49-83.14c-221.07 36.73-431.29 104.62-624.38 186.35-163.57 69.23-328 162.45-521.16 187.8-100.26 13.16-200.3 2.9-298.76-12-96.81-14.63-196.88-33.64-296.48-20.59-216.61 28.39-267 181.38-395.12 281.28-85.82 66.91-214.16 94.93-340.46 102.1C141 648.64 26.49 647-76.67 697.91" stroke="url(#ce)"/><path data-name="Stroke-81" d="M2746.52-84.79c-224 35-437.79 102.93-632.62 185.58-164.72 69.88-329.57 165.78-524.81 190.49-100.53 12.73-200.5 1.64-298.8-14-100.89-16.11-205.31-36.76-309.18-20.6-212.51 33.07-256.73 190-386.52 288-87 65.66-218.75 91.33-344.38 96.53C129.59 646.1 13.7 646-86.57 700.78" stroke="url(#cf)"/><path data-name="Stroke-83" d="M2755-87.44C2529-54.3 2312.27 13.21 2116.26 96.32c-165.62 70.22-329.45 167.73-525.52 193.46-104.58 13.72-208.29.69-310.09-16.55-96.15-16.29-195.83-36.25-295.42-22.49C765.49 281.11 725 443.48 593.5 543.43c-89.25 67.87-226.81 92.29-355.81 95.62C117 642.17.3 644.58-96.33 702.83" stroke="url(#cg)"/><path data-name="Stroke-85" d="M2764.07-89c-228 31.42-447.36 98.19-644.65 181.75-165 69.87-325.71 167.36-519.91 195.54-104.17 15.11-208 2.87-309.56-15s-207.13-41.27-312.63-25.64c-217.32 32.2-254.23 196-384.18 295.6-89.91 68.88-230.76 92.48-361 94.31-122.46 1.73-243 5.49-336.84 68.57" stroke="url(#ch)"/><path data-name="Stroke-87" d="M2772.65-91.38c-228.55 29.2-449.59 94.95-647.16 178.14-168.25 70.85-330.87 172.57-529.07 200.69-104.44 14.82-208.27 1.64-309.61-17.05s-206.84-43-312.57-27.52c-220.15 32.29-252.45 201.06-384.2 301-90.27 68.48-232.83 90.61-362.61 91.17-125.72.55-248 5.92-340.36 73.77" stroke="url(#ci)"/><path data-name="Stroke-89" d="M2781.87-92.71C2549.41-65.36 2323.72.84 2123.52 85.38c-167.35 70.67-327.45 172.54-524.45 201.44-106.4 15.61-212 1.42-314.84-18.43-102.69-19.81-210-45.46-317.62-28.57-220 34.52-246.46 207.89-380.66 307-92.56 68.38-238.87 87.64-369.42 86.46C90 632.17-31.29 642.1-119.83 712.74" stroke="url(#cj)"/><path data-name="Stroke-91" d="M2790.56-94.95C2557.74-70 2330.42-4.78 2130 79.18c-170.81 71.55-332.65 177.82-533.72 206.68-106.64 15.32-212.28.17-314.91-20.51-102.4-20.63-209.7-47.23-317.56-30.44C741 269.59 719.64 448 583.16 547.37c-93.2 67.89-240.68 85.44-370.81 83C81.71 628-39.33 640.77-126.64 715.9" stroke="url(#ck)"/><path data-name="Stroke-93" d="M2798.45-95.7C2561.91-72.78 2329.9-7.17 2126.92 78c-169.92 71.35-329.35 177.73-529.13 207.51-108.66 16.2-215.94 0-320.13-21.89-103.83-21.83-212.91-49.7-322.6-31.42-222.46 37.08-237.61 220-377.15 318.4-94.27 66.51-242.53 81.86-371.65 78.15C71.79 624.9-48 641.87-133.64 720.7" stroke="url(#cl)"/><path data-name="Stroke-95" d="M2807.23-97.77c-236.69 20.43-470.15 85-673.34 169.39-173.57 72.11-334.7 183-538.57 212.83-109 15.94-216.28-1.24-320.21-24-103.57-22.66-212.54-51.5-322.54-33.29C727.34 264.49 717.65 452.52 575.44 551c-96.9 67.11-247.7 79.4-378.42 74.36-137.25-5.27-253.37 18.11-336.22 98.96" stroke="url(#cm)"/><path data-name="Stroke-97" d="M2815.19-98.41c-238.05 18-474.13 82-678.38 166.3-174.92 72.17-335.09 184.92-539.68 216-111 16.89-220-1.38-325.43-25.34-102.9-23.38-211.3-53-321.18-35.26C720.43 260.57 718 455.68 570.45 554.05c-98.47 65.66-249 75.35-379 69.28-55.11-2.57-108.95-3.13-162.08 9-77.15 17.6-129.88 51.53-174.48 97.19" stroke="url(#cn)"/><path data-name="Stroke-99" d="M2822.65-99.89c-240.11 15.53-479.58 79.41-685.4 164C1962.06 136 1803.87 249.44 1600 282.23c-113.28 18.22-224.61-1.17-331.91-26.47-104.52-24.64-215.38-55.95-327.37-36.1C713.16 260 716.19 457.45 566.88 554.76 465.27 621 313.23 627 181.52 620c-55.7-3-109.36-2.4-162.52 11-77.78 19.67-126 56.26-170 103" stroke="url(#co)"/><path data-name="Stroke-101" d="M2830.74-100.31c-242.07 13-484.93 76.69-692.28 161.43-176.93 72.31-335.3 188.67-541.25 221.3-113.64 18-225-2.42-332-28.56-104.3-25.48-214.9-57.68-327.29-38-230.39 40.42-221 243.55-373.77 340.55-103.15 65.52-254.88 69.39-386.4 61.36C119.58 614.22 64.07 615.7 9.24 631c-77.84 21.68-121.62 61.34-165.15 108.59" stroke="url(#cp)"/><path data-name="Stroke-151" d="M617.68 509.25c58.39-29.72 111.17-28.18 176.41-8" stroke="url(#cq)"/><path data-name="Stroke-153" d="M635.34 489.78c59.83-28.23 117.24-17.36 178.11 4.67" stroke="url(#cr)"/><path data-name="Stroke-155" d="M651.11 468.72c62.67-24.72 124.22-5.21 181.38 18.42" stroke="url(#cs)"/><path data-name="Stroke-157" d="M665.79 447.12c60.62-23.72 137.09 10.21 185.89 33" stroke="url(#ct)"/><path data-name="Stroke-159" d="M679.85 425.45c65.56-16.89 142.89 23.13 191.3 48.06" stroke="url(#cu)"/><path data-name="Stroke-161" d="M693.28 403.4c72.25-7.34 146 34.5 197.31 63.48" stroke="url(#cv)"/><path data-name="Stroke-163" d="M706.52 381.4c77.32 2.14 149.19 45.7 203.59 79" stroke="url(#cw)"/><path data-name="Stroke-165" d="M721.74 360c81.18 11.65 152.07 56.19 209.81 94.34" stroke="url(#cx)"/><path data-name="Stroke-167" d="M735.64 339c83.85 20.59 154.94 66.19 215.68 109.32" stroke="url(#cy)"/><path data-name="Stroke-169" d="M750.38 318.82c85.25 28.49 158 75.85 220.9 123.7" stroke="url(#cz)"/><path data-name="Stroke-171" d="M766.67 300.55c85.82 36.53 160.16 84.45 225.18 137.27" stroke="url(#cA)"/><path data-name="Stroke-173" d="M783.51 282.13C869.68 324.18 946.23 375 1011.75 432" stroke="url(#cB)"/><path data-name="Stroke-175" d="M804.18 266.08c86.19 46.73 164.56 100.43 229.82 161.19" stroke="url(#cC)"/><path data-name="Stroke-177" d="M824.73 251.21c85.91 50.71 165.1 107 229.7 171.13" stroke="url(#cD)"/><path data-name="Stroke-179" d="M848.87 237.63c84.83 53.67 165.8 112.24 227.5 179.52" stroke="url(#cE)"/><path data-name="Stroke-181" d="M874.56 227.05c83.13 55.84 165.54 116.16 222.86 186.2" stroke="url(#cF)"/><path data-name="Stroke-183" d="M902.75 218.07c81.42 57.66 161.6 119.09 215.54 191" stroke="url(#cG)"/><path data-name="Stroke-185" d="M934.08 211.65c79.28 58 155.6 121.29 205.38 193.73" stroke="url(#cH)"/><path data-name="Stroke-187" d="M968.32 206.71c73.81 58.76 147.08 122.45 191.94 194.36" stroke="url(#cI)"/><path data-name="Stroke-189" d="M1002.51 205.22c68.73 58.47 138.85 121.36 178.82 192.08" stroke="url(#cJ)"/><path data-name="Stroke-191" d="M1037.22 205.88c64 56.94 131.24 118.51 166.07 187.25" stroke="url(#cK)"/><path data-name="Stroke-193" d="M1069.83 209.41c59.85 54.52 124.1 114 153.63 180.28" stroke="url(#cL)"/><path data-name="Stroke-195" d="M1103.61 214.9c56 51.42 117.26 108.3 141.44 171.53" stroke="url(#cM)"/><path data-name="Stroke-197" d="M1136.3 220.7c52.45 47.81 110.66 101.56 129.43 161.36" stroke="url(#cN)"/><path data-name="Stroke-199" d="M1170.48 228.37C1219 271.69 1275.76 322.7 1288 378.5" stroke="url(#cO)"/><path data-name="Stroke-201" d="M1203 236.5c45 38.81 99 86.58 105.74 138.14" stroke="url(#cP)"/><path data-name="Stroke-203" d="M1235.29 244.71c41.84 34.47 92.5 78.37 93.94 125.75" stroke="url(#cQ)"/><path data-name="Stroke-205" d="M1268.86 252.55c38.76 30.22 85.88 70.07 82.11 113.25" stroke="url(#cR)"/><path data-name="Stroke-207" d="M1302 261.66c36.58 26.8 77.53 61.39 70.2 100.93" stroke="url(#cS)"/><path data-name="Stroke-209" d="M1334.78 268.57c37 25.43 65.12 51.7 58.17 89.06" stroke="url(#cT)"/><path data-name="Stroke-211" d="M1368.69 275.18c31 19.71 62.68 46.76 46 77.89" stroke="url(#cU)"/><path data-name="Stroke-213" d="M1402.64 280.62c32.07 19.37 48.94 38.45 33.56 67.7" stroke="url(#cV)"/><path data-name="Stroke-215" d="M1435.54 285.22c30.51 18.22 39 33.53 20.91 58.69" stroke="url(#cW)"/><path d="M-140.06 721.27C-79.67 672.93.08 682.84 82 692.8c72 8.77 136.61 4.57 202.86-17.21" stroke="url(#cX)"/><path d="M-118.75 697.72c69.93-40 147.17-21.25 227.09-10.42 71 9.62 136 3.21 200.85-18.51" stroke="url(#cY)"/><path d="M-93.23 675.3c79.63-28.3 148.54-4.19 229.14 7 70.11 9.74 135.73 1.15 199.15-20.56" stroke="url(#cZ)"/><path d="M-64.12 656.31c82.8-15 146.61 12.71 226 23.06 67 8.74 137.21-.11 196.63-23.09" stroke="url(#da)"/><path d="M-26 638.85c77.22-1.65 140.9 28.15 215.45 36.6 66 7.48 135.72-3 193.48-25.84" stroke="url(#db)"/><path d="M10.42 626.43c71.05 9.7 133.22 38.11 205.47 44.68 65.82 6 132.2-6.54 189.53-28.61" stroke="url(#dc)"/><path d="M44.3 619.3c67.43 16.48 128.26 44 201.09 48.31 64.85 3.87 128.48-10 184.61-31.49" stroke="url(#dd)"/><path d="M74.59 614.32c64.27 21.41 125.73 47.29 199.23 48.72 63.48 1.23 123.67-13.51 178.52-34.29" stroke="url(#de)"/><path d="M104.57 612.85c62.77 24.64 125.29 47.45 199.69 45.9 61.72-1.3 117.34-16.76 171-36.46" stroke="url(#df)"/><path d="M132.37 613.14c62.75 26.3 127.13 45.05 202.11 40.29 59.23-3.76 109.71-19.65 161.75-37.91" stroke="url(#dg)"/><path d="M161.64 614.16c64.16 26.51 131 40.3 206.15 32.27 55.56-5.93 100.88-22 150.71-38.41" stroke="url(#dh)"/><path d="M190.27 616.51c67.64 25.42 135.64 33 211.46 22 50.46-7.26 91.21-23.51 137.63-37.51" stroke="url(#di)"/><path data-name="Stroke-127" d="M219.91 618.57c70.68 22.45 140.63 24.29 215.73 10.84 44.53-8 81.86-24.65 124.28-36" stroke="url(#dj)"/><path data-name="Stroke-129" d="M251.39 620.13c71.46 17.29 141.78 15.37 214.12.27 40.32-8.41 75-25.63 114.91-34.64" stroke="url(#dk)"/><path data-name="Stroke-131" d="M284.9 620a509.94 509.94 0 0 0 206.5-9.54c37.28-9.62 70.38-25.94 109.13-33" stroke="url(#dl)"/><path data-name="Stroke-133" d="M321.86 618.86c65.59 4.88 133.65-.18 194.63-18.46 34.8-10.44 66.79-25.44 104.6-30.52" stroke="url(#dm)"/><path data-name="Stroke-135" d="M362.46 615.59c61.39-.61 123-7 178.52-25.67 32.73-11 63.82-24.31 100.78-27.4" stroke="url(#dn)"/><path data-name="Stroke-137" d="M404.9 608.37c57.06-5.14 106.32-12.51 157.15-30.56 31.43-11.15 62.06-22.5 98.17-23.6" stroke="url(#do)"/><path data-name="Stroke-139" d="M454 598.16c48.89-6.94 86.75-16.43 130.51-32.45 29.77-10.9 61.72-20.45 96.23-19.16" stroke="url(#dp)"/><path data-name="Stroke-141" d="M496.93 586.77c71.21-13.38 126-50.3 202.86-47.48" stroke="url(#dq)"/><path data-name="Stroke-143" d="M526.6 574.92c66.78-19.28 115.45-50.42 191.85-43.59" stroke="url(#dr)"/><path data-name="Stroke-145" d="M553.2 561c63.24-24 108.57-48.51 184-37.46" stroke="url(#ds)"/><path data-name="Stroke-147" d="M577.5 546.08c60-27.42 106.24-43.81 179-29.35" stroke="url(#dt)"/><path data-name="Stroke-149" d="M598.9 528.77c58.46-29.39 107.17-37.12 176.62-19.45" stroke="url(#du)"/></g></g><path fill="url(#b)" d="M1323 163.11h117v356.7h-117z"/><path fill="url(#dv)" d="M-3 507.38h117v310.8H-3z"/></svg>